<?xml version="1.0" encoding="UTF-8" standalone="no"?>
<!-- Created with Inkscape (http://www.inkscape.org/) -->

<svg
   xmlns:dc="http://purl.org/dc/elements/1.1/"
   xmlns:cc="http://creativecommons.org/ns#"
   xmlns:rdf="http://www.w3.org/1999/02/22-rdf-syntax-ns#"
   xmlns:svg="http://www.w3.org/2000/svg"
   xmlns="http://www.w3.org/2000/svg"
   xmlns:sodipodi="http://sodipodi.sourceforge.net/DTD/sodipodi-0.dtd"
   xmlns:inkscape="http://www.inkscape.org/namespaces/inkscape"
   id="svg6248"
   sodipodi:docname="chicken-line-art-davidone-Chicken.svg"
   viewBox="0 0 759.5 900.57"
   version="1.1"
   inkscape:version="0.92.1 r15371"
   width="810.13336"
   height="960.60803">
  <defs
     id="defs44" />
  <sodipodi:namedview
     id="namedview6252"
     bordercolor="#666666"
     inkscape:pageshadow="2"
     inkscape:window-y="-8"
     pagecolor="#ffffff"
     inkscape:window-height="838"
     inkscape:window-maximized="1"
     inkscape:zoom="0.36"
     inkscape:window-x="-8"
     showgrid="false"
     borderopacity="1.0"
     inkscape:current-layer="layer1"
     inkscape:cx="-601.19713"
     inkscape:cy="299.36926"
     inkscape:window-width="1600"
     inkscape:pageopacity="0.0"
     inkscape:document-units="in" />
  <g
     id="layer1"
     inkscape:label="Layer 1"
     inkscape:groupmode="layer"
     transform="translate(-4.6591,-88.327)">
    <path
       id="path2503"
       style="fill:#ffffff;stroke:#000000;stroke-width:6.18009996"
       d="m 512.38,941.63 c 0,0 -29.32,7.0069 -32.283,11.775 -2.9628,4.7683 -6.4048,12.05 -6.4048,12.05 0,0 14.623,-3.0662 15.871,-7.3644 1.2486,-4.2982 36.008,1.318 36.008,1.318"
       inkscape:connector-curvature="0" />
    <path
       id="path2477"
       sodipodi:nodetypes="czczc"
       style="fill:none;stroke:#000000;stroke-width:6.18009996"
       d="m 366.14,882.54 c 0,0 42.043,-6.0062 53.504,-4.4499 11.462,1.5563 25.079,8.8122 25.079,8.8122 0,0 -21.079,-2.5509 -26.897,-0.94715 -5.8181,1.6037 -16.14,10.077 -16.14,10.077"
       inkscape:connector-curvature="0" />
    <path
       id="path2483"
       sodipodi:nodetypes="czc"
       style="fill:#ffffff;stroke:#000000;stroke-width:6.18009996"
       d="m 401.47,915.08 c -10.21,-2.8668 53.863,-13.019 67.563,-16.276 13.7,-3.2571 -95.286,-11.046 -95.286,-11.046"
       inkscape:connector-curvature="0" />
    <path
       id="path2489"
       sodipodi:nodetypes="czscscc"
       style="fill:#ffffff;stroke:#000000;stroke-width:6.18009996"
       d="m 311.69,751.57 c 3.719,18.405 39.883,153.8 52.926,157.38 13.043,3.5787 53.232,18.773 56.715,20.292 4.2732,1.8636 22.531,16.375 22.531,16.375 0,0 -11.346,-23.359 -16.645,-24.584 -5.2991,-1.2254 -41.163,-25.468 -43.141,-30.711 -23.7,-44.99 -39.39,-114.21 -42.45,-140.6"
       inkscape:connector-curvature="0" />
    <path
       id="path2452"
       style="fill:#ffffff;stroke:#000000;stroke-width:6.18009996"
       d="m 196.01,642.81 c 0,0 11.762,76.801 43.59,84.412 31.827,7.6109 67.114,44.974 74.033,46.357 6.919,1.3838 32.519,12.454 36.671,12.454 4.1514,0 87.871,-48.433 87.871,-48.433"
       inkscape:connector-curvature="0" />
    <path
       id="path2924"
       style="fill:#ffffff;stroke:#000000;stroke-width:6.18009996"
       d="m 523.21,328.41 c -72.509,60.814 -79.527,43.662 -84.984,45.221 -5.4577,1.5594 -56.916,40.543 -79.527,40.543 -22.61,0 -73.289,-9.356 -101.36,-2.339 -28.068,7.017 -166.07,56.136 -166.07,56.136 0,0 9.3561,148.14 56.136,178.54 46.78,30.407 130.21,46.78 130.21,46.78 0,0 318.11,20.271 360.21,-71.73 42.102,-92.001 34.306,-165.29 34.306,-165.29 l -77.98,-129.42"
       inkscape:connector-curvature="0" />
    <path
       id="path2444"
       sodipodi:nodetypes="czczc"
       style="fill:#ffffff;stroke:#000000;stroke-width:6.18009996"
       d="m 521.25,941.86 c 0,0 39.609,-15.324 51.126,-16.39 11.518,-1.066 26.419,2.9355 26.419,2.9355 0,0 -21.112,2.2638 -26.419,5.1371 -5.3072,2.8733 -13.454,13.454 -13.454,13.454"
       inkscape:connector-curvature="0" />
    <path
       id="path2436"
       sodipodi:nodetypes="czc"
       style="fill:#ffffff;stroke:#000000;stroke-width:6.18009996"
       d="m 563.01,965.6 c -10.594,-0.49274 49.545,-24.82 62.159,-31.08 12.614,-6.26 -95.325,10.705 -95.325,10.705"
       inkscape:connector-curvature="0" />
    <path
       id="path2940"
       sodipodi:nodetypes="czscscc"
       style="fill:#ffffff;stroke:#000000;stroke-width:6.18009996"
       d="m 438.7,826.52 c 7.7699,17.094 73.509,140.86 87.023,141.41 13.514,0.54807 56.093,6.2978 59.828,6.9929 4.5832,0.85298 25.641,10.878 25.641,10.878 0,0 -16.317,-20.202 -21.756,-20.202 -5.439,0 -45.843,-15.54 -48.95,-20.202 -33.232,-38.494 -64.108,-102.4 -73.037,-127.43"
       inkscape:connector-curvature="0" />
    <path
       id="path2932"
       sodipodi:nodetypes="ccssssc"
       style="fill:#ffffff;stroke:#000000;stroke-width:6.18009996"
       d="m 582.51,651 c -15.568,67.15 -14.772,91.317 -58.674,137.38 -2.8622,8.5865 -31.484,48.657 -41.501,50.088 -10.018,1.4311 -41.501,0 -48.657,-5.7243 -7.1554,-5.7243 -24.328,-48.657 -34.346,-52.95 -10.018,-4.2932 -94.452,-51.519 -97.314,-58.674 -2.8622,-7.1554 -37.208,-47.226 -37.208,-47.226"
       inkscape:connector-curvature="0" />
    <path
       id="path3665"
       sodipodi:nodetypes="cssscscscscscc"
       style="fill:none;stroke:#000000;stroke-width:6.18009996"
       d="m 635.44,472.46 c -2.023,105.19 -69.623,103.81 -85.976,158.8 -7.9706,26.802 -182.48,51.069 -204.32,43.494 -12.088,-4.1921 -71.815,-2.023 -71.815,-14.161 0,-12.138 138.57,-48.551 138.57,-48.551 0,0 -127.45,43.494 -131.49,28.322 -4.0459,-15.172 118.34,-55.632 118.34,-55.632 0,0 -91.033,37.425 -93.056,17.195 -2.023,-20.23 75.861,-37.425 75.861,-37.425 0,0 -71.815,17.195 -68.781,4.046 3.0344,-13.149 49.563,-19.218 49.563,-19.218 0,0 -26.299,-2.023 -25.287,-9.1034 1.0115,-7.0804 68.763,-23.727 68.763,-23.727 l 79.925,69.244"
       inkscape:connector-curvature="0" />
    <path
       id="path3295"
       sodipodi:nodetypes="csc"
       style="fill:#ffffff;fill-rule:evenodd;stroke:#000000;stroke-width:1.51499999"
       d="m 414.42,570.84 c -85.015,23.1 -96.461,27.922 -91.55,36.013 10.331,17.022 122.47,-12.496 122.44,-12.548"
       inkscape:connector-curvature="0" />
    <path
       id="path3297"
       sodipodi:nodetypes="csc"
       style="fill:#ffffff;fill-rule:evenodd;stroke:#000000;stroke-width:1.51499999"
       d="m 415.94,521.21 c -85.015,23.1 -96.461,27.922 -91.55,36.013 10.331,17.022 122.47,-12.496 122.44,-12.548"
       inkscape:connector-curvature="0" />
    <path
       id="path3279"
       sodipodi:nodetypes="csc"
       style="fill:none;stroke:#000000;stroke-width:2.05999994"
       d="m 457.38,620.49 c -111.36,27.684 -126.47,33.857 -120.69,45.725 12.159,24.968 158.98,-10.189 158.95,-10.265"
       inkscape:connector-curvature="0" />
    <path
       id="path3673"
       style="fill:#ffffff;stroke:#000000;stroke-width:6.24889994"
       d="m 663.73,487.62 c 0,69.882 -71.227,147.12 -105.61,147.12 -34.385,0 -158.83,-33.102 -167.01,-91.95 -8.19,-58.85 126.07,-73.56 126.07,-73.56"
       inkscape:connector-curvature="0" />
    <path
       id="path2505"
       style="fill:none;stroke:#000000;stroke-width:2.05999994"
       d="m 502.2,470.79 -57.789,38.131 78.868,-7.3421 -29.368,27.237 104.45,-13.737 -54.71,47.842 66.552,-12.789 -11.605,41.21 33.394,-15.158"
       inkscape:connector-curvature="0" />
    <path
       id="path3277"
       style="fill:none;stroke:#000000;stroke-width:2.05999994"
       d="m 432.1,494.71 -28.184,35.763 54.236,-0.47368 -27.473,29.842 78.868,0.71052 -31.973,36.473 82.184,-6.3947 -20.842,32.684 49.5,-2.6052"
       inkscape:connector-curvature="0" />
    <path
       id="path3607"
       sodipodi:nodetypes="cccccc"
       style="fill:none;stroke:#000000;stroke-width:8.60249996"
       d="m 711.57,299.45 c 26.812,-9.0309 16.8,-50.213 16.8,-50.213 l -15.665,-16.557 -48.201,27.469 5.4226,22.577 c 0,0 15.434,20.863 41.644,16.724 z"
       inkscape:connector-curvature="0" />
    <path
       id="path3619"
       sodipodi:nodetypes="csscccccccccccccssscc"
       style="fill:#ffffff;stroke:#000000;stroke-width:6.18009996"
       d="m 626.12,171.93 c -62.257,36.26 -70,55.154 -79.578,74.31 -9.578,19.156 -28.05,81.413 -39.68,93.043 -11.63,11.63 -21.208,16.419 -21.208,16.419 l 33.523,-11.63 -4.1049,46.522 c 11.916,-14.619 18.416,-30.012 21.893,-45.838 l 8.8938,59.52 c 4.1856,-18.82 11.663,-33.251 26.682,-37.628 l 1.3683,42.417 c 17.81,-0.42335 29.845,-9.5075 35.575,-28.05 l -1.3683,55.416 c 6.1822,-12.493 14.162,-21.391 28.734,-17.104 5.519,29.571 1.797,43.739 -3.4207,55.416 l 21.208,-9.578 -2.0524,34.207 c 0,0 23.945,-32.839 22.577,-42.417 -1.3683,-9.578 -10.946,-17.788 -8.2097,-28.734 5.7143,-22.857 18.472,-71.835 14.367,-84.834 -4.1048,-12.999 -29.418,-105.36 -29.418,-105.36 l -25.78,-66.101 z"
       inkscape:connector-curvature="0" />
    <path
       id="path3589"
       sodipodi:nodetypes="czcccccccccccccccssscc"
       style="fill:#ffffff;stroke:#000000;stroke-width:6.18009996"
       d="m 705.45,182.52 c -11.29,-22.101 -62.266,-18.806 -80.122,-10.6 -18.232,8.3794 -30.552,42.088 -30.552,42.088 l 26.188,-17.459 -23.07,38.346 23.382,-16.523 -21.511,53.934 23.07,-27.747 -7.4822,33.358 9.6645,-15.276 -1.247,35.541 16.835,-27.123 4.9881,49.882 5.6117,-20.576 9.6645,34.294 4.0529,-32.423 14.341,33.358 c 0,0 -8.1058,-36.476 -7.4822,-44.27 0.62351,-7.794 0.5613,-22.603 11.718,-33.745 4.403,-4.3972 24.607,-11.879 39.705,-14.045 19.408,-2.7852 19.583,-19.533 19.583,-19.533 l -37.34,-41.48 z"
       inkscape:connector-curvature="0" />
    <path
       id="path3651"
       sodipodi:nodetypes="csssccccc"
       style="fill:none;stroke:#000000;stroke-width:4.12010002"
       d="m 668.63,194.4 c -6.4592,0 -25.433,6.4592 -25.433,19.781 0,13.3218 17.359,35.122 20.589,35.122 3.2296,0 8.074,-2.8259 12.515,-2.8259 4.4407,0 8.074,8.8814 8.074,8.8814 l 20.185,-10.092 -4.037,-22.204 12.111,-11.304 c 0,0 -21.8,-17.763 -44.003,-17.359 z"
       inkscape:connector-curvature="0" />
    <path
       id="path2806"
       sodipodi:nodetypes="cssscc"
       style="fill:#ffffff;stroke:#000000;stroke-width:6.18009996"
       d="m 708.92,226.05 c 10.033,-7.0201 9.6622,-21.169 15.767,-17.784 31.249,17.324 44.006,45.884 31.813,45.248 -11.906,-0.62114 -12.345,-5.7316 -14.99,-5.7316 -2.6454,0 -28.879,-1.3227 -28.879,-1.3227 l -3.7109,-20.41 z"
       inkscape:connector-curvature="0" />
    <path
       id="path3603"
       sodipodi:nodetypes="cccccccccccc"
       style="fill:#ffffff;stroke:#000000;stroke-width:6.18009996"
       d="m 655.27,162.78 c -6.4099,-11.666 -19.29,-50.033 -15.319,-51.206 12.032,9.235 14.095,15.915 24.318,20.625 0,0 3.0978,-28.72 5.7211,-32.03 5.8203,3.9718 16.509,36.678 16.509,36.678 0,0 18.154,-39.395 23.328,-45.434 5.8846,5.6837 -0.4371,60.456 -0.4371,60.456 0,0 16.941,-32.002 23.937,-34.666 3.6212,7.6374 2.2225,37.063 2.2225,37.063 11.122,-16.138 7.6223,-3.3424 11.934,-6.1492 7.9434,19.245 6.5882,54.081 -14.714,62.471 -18.083,3.7594 -73.871,-30.877 -77.499,-47.808 z"
       inkscape:connector-curvature="0" />
    <ellipse
       id="path3601"
       style="fill:#000000;fill-rule:evenodd"
       transform="matrix(2.3896,0,0,2.3123,-492.14,-549.16)"
       cx="487.39371"
       cy="330.6062"
       rx="5.8707986"
       ry="5.7533827" />
    <ellipse
       id="path3643"
       style="fill:#ffba24;fill-rule:evenodd"
       transform="matrix(2.127,0,0,2.0582,-364.31,-465.26)"
       cx="487.39371"
       cy="330.6062"
       rx="5.8707986"
       ry="5.7533827" />
    <ellipse
       id="path3645"
       style="fill:#000000;fill-rule:evenodd"
       transform="matrix(1.5823,0,0,1.4815,-98.721,-274.81)"
       cx="487.39371"
       cy="330.6062"
       rx="5.8707986"
       ry="5.7533827" />
    <path
       id="path3647"
       sodipodi:nodetypes="ccc"
       style="fill:#ffffff;fill-rule:evenodd"
       d="m 667.56,205.58 c 1.9815,9.5551 8.6671,9.4964 16.885,7.3461 -9.3174,-0.55983 -11.94,-1.1504 -16.885,-7.3461 z"
       inkscape:connector-curvature="0" />
    <path
       id="path3649"
       style="fill:none;stroke:#000000;stroke-width:2.05999994"
       d="m 757.86,252.78 c 0,0 -13.131,-12.56 -23.622,-15.986 -10.491,-3.4255 -24.264,-10.277 -24.264,-10.277"
       inkscape:connector-curvature="0" />
    <path
       id="path3283"
       style="fill:#cecea2;fill-rule:evenodd"
       d="M 111.17,509.45 C 32.788,485.81 5.41,500.74 7.9,506.96 c 2.492,6.22 103.27,23.64 103.27,23.64 0,0 -88.34,-14.931 -88.34,7.4654 0,22.3964 120.69,9.9538 120.69,9.9538 0,0 -90.829,18.663 -77.142,41.059 13.686,22.396 128.16,-29.861 128.16,-29.861"
       inkscape:connector-curvature="0" />
    <path
       id="path3281"
       style="fill:#ffffff;stroke:#000000;stroke-width:6.18009996"
       d="M 111.17,509.45 C 32.788,485.81 5.41,500.74 7.9,506.96 c 2.492,6.22 103.27,23.64 103.27,23.64 0,0 -88.34,-14.931 -88.34,7.4654 0,22.3964 120.69,9.9538 120.69,9.9538 0,0 -90.829,18.663 -77.142,41.059 13.686,22.396 128.16,-29.861 128.16,-29.861"
       inkscape:connector-curvature="0" />
    <path
       id="path3293"
       sodipodi:nodetypes="csc"
       style="fill:#ffffff;fill-rule:evenodd;stroke:#000000;stroke-width:2.05999994"
       d="M 146.27,519.96 C 36.38,553 21.58,559.9 27.93,571.47 41.286,595.82 186.23,553.6 186.2,553.52"
       inkscape:connector-curvature="0" />
    <path
       id="path2916"
       sodipodi:nodetypes="cccsczczczcsc"
       style="fill:#ffffff;stroke:#000000;stroke-width:6.18009996"
       d="M 248.71,431.83 C 161.27,427.91 126.21,190.39 79.55,208.59 c -26.004,7.8883 99.78,211.39 99.78,211.39 0,0 -90.702,-177.79 -115.47,-170.72 -35.135,10.039 76.148,193.77 76.148,193.77 0,0 -91.871,-176.19 -109.62,-165.43 C 12.64,288.357 97.97,453.88 97.97,453.88 97.9762,453.876 30.021,327.75 13.602,346.06 c -16.418,18.319 74.876,143.07 74.876,143.07 0,0 -71.211,-90.173 -79.072,-73.221 -8.1395,17.552 58.732,100.34 58.732,100.34 0,0 61.021,63.733 138.31,50.172 l 77.293,-13.56"
       inkscape:connector-curvature="0" />
    <path
       id="path2491"
       style="fill:#ffffff;stroke:#000000;stroke-width:6.18009996"
       d="m 361.52,892.57 c 0,0 -28.13,10.838 -30.433,15.957 -2.3034,5.1194 -4.7482,12.794 -4.7482,12.794 0,0 14.086,-4.9805 14.753,-9.4064 0.66692,-4.4259 35.864,-3.4746 35.864,-3.4746"
       inkscape:connector-curvature="0" />
    <path
       id="path3289"
       sodipodi:nodetypes="csc"
       style="fill:#ffffff;fill-rule:evenodd;stroke:#000000;stroke-width:2.05999994"
       d="M 120.23,433.21 C 47.381,344.55 35.313,333.56 27.081,343.88 9.761,365.59 104.6,483.05 104.66,482.99"
       inkscape:connector-curvature="0" />
    <path
       id="path3291"
       sodipodi:nodetypes="csc"
       style="fill:#ffffff;fill-rule:evenodd;stroke:#000000;stroke-width:2.05999994"
       d="M 153.26,427.71 C 94.114,329.38 83.778,316.74 74.128,325.75 53.828,344.7 130.52,474.74 130.59,474.69"
       inkscape:connector-curvature="0" />
    <path
       id="path2920"
       sodipodi:nodetypes="cszcsczczczcszc"
       style="fill:#ffffff;stroke:#000000;stroke-width:6.18009996"
       d="m 309.67,503.28 c 0,0 -124.87,23.784 -129.82,13.874 -4.9551,-9.9101 50.542,-13.874 50.542,-13.874 0,0 -69.822,11.585 -72.344,1.982 -2.5339,-9.6495 67.389,-17.838 67.389,-17.838 0,0 -73.384,-0.21542 -73.335,-13.874 0.049,-13.65858 52.524,-8.9191 52.524,-8.9191 0,0 -61.629,-5.0468 -62.434,-22.793 -0.7962,-17.562 61.443,7.9281 61.443,7.9281 0,0 -65.385,-29.949 -56.633,-42.127 9.4075,-13.092 68.526,32.217 68.526,32.217 0,0 -62.612,-42.891 -50.542,-54.506 11.97,-11.518 26.757,11.892 36.668,21.802 9.9101,9.9101 43.197,7.3547 55.074,7.7003 11.293,0.32862 67.48,26.615 67.48,26.615"
       inkscape:connector-curvature="0" />
    <path
       id="path3409"
       sodipodi:nodetypes="ccccccc"
       style="fill:#000000;fill-opacity:0.09134599;fill-rule:evenodd"
       d="m 1391.6,813.79 11.876,0.22407 -23.304,-56.466 -8.9629,-32.266 -3.3611,-18.374 -11.876,-3.8092 c 2.877,40.176 17.856,75.132 35.628,110.69 z"
       inkscape:connector-curvature="0" />
  </g>
  <metadata
     id="metadata41">
    <rdf:RDF>
      <cc:Work>
        <dc:format>image/svg+xml</dc:format>
        <dc:type
           rdf:resource="http://purl.org/dc/dcmitype/StillImage" />
        <cc:license
           rdf:resource="http://creativecommons.org/licenses/publicdomain/" />
        <dc:publisher>
          <cc:Agent
             rdf:about="http://openclipart.org/">
            <dc:title>Openclipart</dc:title>
          </cc:Agent>
        </dc:publisher>
        <dc:title>chicken line art davidone Chicken</dc:title>
        <dc:date>2010-07-29T16:48:22</dc:date>
        <dc:description />
        <dc:source>https://openclipart.org/detail/75265/-by-gammillian</dc:source>
        <dc:creator>
          <cc:Agent>
            <dc:title>gammillian</dc:title>
          </cc:Agent>
        </dc:creator>
        <dc:subject>
          <rdf:Bag>
            <rdf:li>animal</rdf:li>
            <rdf:li>bird</rdf:li>
            <rdf:li>black and white</rdf:li>
            <rdf:li>cartoon</rdf:li>
            <rdf:li>chicken</rdf:li>
            <rdf:li>coloring book</rdf:li>
            <rdf:li>line art</rdf:li>
          </rdf:Bag>
        </dc:subject>
      </cc:Work>
      <cc:License
         rdf:about="http://creativecommons.org/licenses/publicdomain/">
        <cc:permits
           rdf:resource="http://creativecommons.org/ns#Reproduction" />
        <cc:permits
           rdf:resource="http://creativecommons.org/ns#Distribution" />
        <cc:permits
           rdf:resource="http://creativecommons.org/ns#DerivativeWorks" />
      </cc:License>
    </rdf:RDF>
  </metadata>
</svg>
