<?xml version="1.0" encoding="UTF-8" standalone="no"?>
<!-- Created with Inkscape (http://www.inkscape.org/) -->

<svg
   xmlns:dc="http://purl.org/dc/elements/1.1/"
   xmlns:cc="http://creativecommons.org/ns#"
   xmlns:rdf="http://www.w3.org/1999/02/22-rdf-syntax-ns#"
   xmlns:svg="http://www.w3.org/2000/svg"
   xmlns="http://www.w3.org/2000/svg"
   xmlns:sodipodi="http://sodipodi.sourceforge.net/DTD/sodipodi-0.dtd"
   xmlns:inkscape="http://www.inkscape.org/namespaces/inkscape"
   id="svg2"
   sodipodi:docname="iammisc-Dinner-Plate-with-Spoon-and-Fork.svg"
   viewBox="0 0 524.5 385.99"
   sodipodi:version="0.32"
   version="1.0"
   inkscape:version="0.92.1 r15371"
   width="559.46667"
   height="411.72266">
  <defs
     id="defs12" />
  <sodipodi:namedview
     id="base"
     bordercolor="#666666"
     inkscape:pageshadow="2"
     inkscape:window-y="0"
     pagecolor="#ffffff"
     inkscape:window-height="645"
     inkscape:window-maximized="0"
     inkscape:zoom="0.49497475"
     inkscape:window-x="0"
     showgrid="false"
     borderopacity="1.0"
     inkscape:current-layer="layer1"
     inkscape:cx="160.22715"
     inkscape:cy="-248.81262"
     inkscape:window-width="674"
     inkscape:pageopacity="0.0"
     inkscape:document-units="px" />
  <g
     id="layer1"
     inkscape:label="Layer 1"
     inkscape:groupmode="layer"
     transform="translate(-23.419,-28.581)">
    <path
       id="path3150"
       inkscape:connector-curvature="0"
       sodipodi:nodetypes="csssssssssssssssssss"
       style="fill:#fff290;fill-rule:evenodd"
       d="m 23.419,154.38 c 0,29.01 25.46,137.75 31.846,162.98 4.719,18.64 11.91,37.82 20.267,54.32 11.025,21.78 37.158,29.19 57.898,34.31 29.99,7.4 64.72,8.58 95.55,8.58 29.01,0 61.03,-9.27 88.87,-16.15 6.82,-1.68 24.62,-3.81 31.38,-5.71 26.26,-7.42 39.71,-14.06 67.93,-21.03 19.19,-4.74 39.26,-16.93 55.01,-28.59 19.52,-14.46 34.83,-32.52 49.22,-51.47 2.89,-3.81 5.79,-7.62 8.68,-11.43 11.11,-14.63 17.37,-39.13 17.37,-57.19 0,-21.96 2.94,-38.5 -5.79,-60.04 C 533.06,141.75 514.16,127.23 498.23,111.5 479.28,92.79 464.74,73.607 442.34,62.549 419.5,51.271 386.46,50.822 361.28,42.534 329.54,32.088 291.19,28.581 257.93,28.581 h -75.28 c -25.82,0 -23.13,4.035 -47.86,8.92 C 117.33,40.95 23.42,120.67 23.42,154.381 Z" />
    <path
       id="path1307"
       sodipodi:rx="171.42857"
       sodipodi:ry="142.85715"
       style="fill:none;stroke:#000000;stroke-width:11.30000019;stroke-linecap:round;stroke-miterlimit:0"
       sodipodi:type="arc"
       d="M 552.78901,454.12349 A 171.42857,142.85715 0 0 1 318.20667,474.08309 171.42857,142.85715 0 0 1 281.62629,279.96038 171.42857,142.85715 0 0 1 512.25908,239.04157"
       sodipodi:open="true"
       transform="matrix(1.0078,0,0,1.2093,-132.13,-219.5)"
       sodipodi:cy="360.93362"
       sodipodi:cx="422.85715"
       sodipodi:end="5.2610102"
       sodipodi:start="0.71065329" />
    <path
       id="path2182"
       sodipodi:rx="171.42857"
       sodipodi:ry="142.85715"
       style="fill:none;stroke:#000000;stroke-width:11.30000019;stroke-linecap:round;stroke-miterlimit:0"
       sodipodi:type="arc"
       d="m 290.93544,269.70582 a 171.42857,142.85715 0 0 1 208.29003,-36.67091 171.42857,142.85715 0 0 1 90.5164,160.57183 171.42857,142.85715 0 0 1 -166.84975,110.18403"
       sodipodi:open="true"
       transform="matrix(0.75036,0,0,0.8994,-22.568,-111.21)"
       sodipodi:cy="360.93362"
       sodipodi:cx="422.85715"
       sodipodi:end="1.5705923"
       sodipodi:start="3.8342633" />
    <path
       id="path4031"
       inkscape:connector-curvature="0"
       sodipodi:nodetypes="cczccsccscczccsccsszssc"
       style="fill:none;stroke:#000000;stroke-width:5.8829999"
       d="m 450.83,139.1 0.51,-44.032 c 0,0 -0.76,-8.806 6.38,-8.806 6.89,0 5.61,8.806 5.61,8.806 l -0.25,44.032 c 0,0 -0.77,4.4 5.1,4.66 5.87,0.26 4.85,-4.92 4.85,-4.92 l -0.25,-43.254 c 0,0 -0.52,-9.324 5.61,-9.324 6.12,0 4.85,9.583 4.85,9.583 v 44.285 c 0,0 1.91,3.82 6.12,3.63 4.21,-0.2 4.91,-3.69 5.04,-3.6 l 0.57,-44.056 c 0,0 0,-9.324 5.36,-9.583 5.36,-0.259 5.36,9.583 5.36,9.583 l -0.26,46.616 c 0,0 2.86,37.66 -14.58,40.2 -15.44,2.24 6.09,133.94 0.33,137.86 -5.44,3.71 -6.81,4.36 -11.91,4.62 -5.1,0.26 -10.09,-1.6 -13.35,-5.35 -6.01,-6.91 13.08,-136.23 1.53,-137.9 -15.04,-2.18 -16.87,-43.31 -16.62,-43.05 z" />
    <path
       id="path8399"
       inkscape:connector-curvature="0"
       sodipodi:nodetypes="csssszsss"
       style="fill:none;stroke:#000000;stroke-width:5.8829999"
       d="M 53.905,111.24 C 60.794,98.034 74.827,95.871 80.95,95.871 c 6.124,0 22.62,1.473 27.3,16.409 4.74,15.12 2.6,84.28 -14.841,86.81 -15.44,2.24 6.092,133.95 0.335,137.87 -5.446,3.7 -6.809,4.35 -11.912,4.61 -5.103,0.26 -9.59,-0.58 -12.85,-4.34 -6.006,-6.91 12.578,-135.72 1.033,-137.39 -15.043,-2.18 -22.999,-75.39 -16.11,-88.6 z" />
    <path
       id="path8401"
       sodipodi:rx="16.920055"
       sodipodi:ry="26.769043"
       style="fill:none;stroke:#000000;stroke-width:5.8829999;stroke-linecap:round"
       sodipodi:type="arc"
       d="m 158.5168,292.88708 a 16.920055,26.769043 0 0 1 16.01762,11.98709 16.920055,26.769043 0 0 1 0.47447,28.02335 16.920055,26.769043 0 0 1 -15.58903,13.32654"
       sodipodi:open="true"
       transform="matrix(1,0,0,1.2465,-76.772,-252.75)"
       sodipodi:cy="319.49652"
       sodipodi:cx="160.36171"
       sodipodi:end="1.6264896"
       sodipodi:start="4.6031352" />
  </g>
  <metadata
     id="metadata11">
    <rdf:RDF>
      <cc:Work>
        <dc:format>image/svg+xml</dc:format>
        <dc:type
           rdf:resource="http://purl.org/dc/dcmitype/StillImage" />
        <cc:license
           rdf:resource="http://creativecommons.org/licenses/publicdomain/" />
        <dc:publisher>
          <cc:Agent
             rdf:about="http://openclipart.org/">
            <dc:title>Openclipart</dc:title>
          </cc:Agent>
        </dc:publisher>
      </cc:Work>
      <cc:License
         rdf:about="http://creativecommons.org/licenses/publicdomain/">
        <cc:permits
           rdf:resource="http://creativecommons.org/ns#Reproduction" />
        <cc:permits
           rdf:resource="http://creativecommons.org/ns#Distribution" />
        <cc:permits
           rdf:resource="http://creativecommons.org/ns#DerivativeWorks" />
      </cc:License>
    </rdf:RDF>
  </metadata>
</svg>
