<?xml version="1.0" encoding="UTF-8" standalone="no"?>
<svg
   xmlns:dc="http://purl.org/dc/elements/1.1/"
   xmlns:cc="http://creativecommons.org/ns#"
   xmlns:rdf="http://www.w3.org/1999/02/22-rdf-syntax-ns#"
   xmlns:svg="http://www.w3.org/2000/svg"
   xmlns="http://www.w3.org/2000/svg"
   xmlns:sodipodi="http://sodipodi.sourceforge.net/DTD/sodipodi-0.dtd"
   xmlns:inkscape="http://www.inkscape.org/namespaces/inkscape"
   id="coyote_xA0_Image_1_"
   xml:space="preserve"
   viewBox="-50930.05 0 0 361.443"
   version="1.1"
   x="0px"
   y="0px"
   enable-background="new 0 0 221.435 361.443"
   inkscape:version="0.92.1 r15371"
   width="245.33333"
   height="128"
   sodipodi:docname="coyote-230x120.svg"
   inkscape:export-filename="/home/mjoyner/git/BoundPronouns/android/assets/images/coyote.png"
   inkscape:export-xdpi="179.28139"
   inkscape:export-ydpi="179.28139"><defs
     id="defs181" /><sodipodi:namedview
     pagecolor="#ffffff"
     bordercolor="#666666"
     borderopacity="1"
     objecttolerance="10"
     gridtolerance="10"
     guidetolerance="10"
     inkscape:pageopacity="0"
     inkscape:pageshadow="2"
     inkscape:window-width="1909"
     inkscape:window-height="999"
     id="namedview179"
     showgrid="false"
     inkscape:zoom="1.8467886"
     inkscape:cx="-48.364899"
     inkscape:cy="109.83455"
     inkscape:window-x="0"
     inkscape:window-y="25"
     inkscape:window-maximized="1"
     inkscape:current-layer="coyote_xA0_Image_1_" /><g
     id="g3"
     style="clip-rule:evenodd;fill:#000000;fill-rule:evenodd"
     transform="matrix(0.32474786,0.05483935,-0.05483935,0.32474786,23.923106,-3.9126914)"><path
       d="m 211.168,11.730133 c 0.96107,0.341334 1.6064,1.000534 1.56373,2.346667 -2.70933,0.6816 -2.688,-1.204267 -1.568,-2.346667 z"
       id="path5"
       style="fill:#000000;stroke-width:1.06666672"
       inkscape:connector-curvature="0" /><path
       d="m 204.13867,15.640533 c -0.51414,1.0496 -1.67147,1.456 -3.12854,1.563734 0.18134,-1.376 1.33334,-1.7824 3.12534,-1.563734 z"
       id="path7"
       style="fill:#000000;stroke-width:1.06666672"
       inkscape:connector-curvature="0" /><path
       d="m 212.736,16.4224 h 1.5648 v 1.563733 h -1.5648 z"
       id="path9"
       style="fill:#000000;stroke-width:1.06666672"
       inkscape:connector-curvature="0" /><path
       d="m 211.168,20.3328 c 0.26987,-0.944 2.08,-0.632533 2.3456,0 0.71467,1.690667 -2.85867,1.812267 -2.34667,0 z"
       id="path11"
       style="fill:#000000;stroke-width:1.06666672"
       inkscape:connector-curvature="0" /><path
       d="m 206.47467,23.461333 c -1.2576,1.869867 -2.5728,3.6832 -2.3456,7.037867 -2.40747,-0.5472 -1.50294,-0.5472 -3.9104,0 -0.17387,3.3504 2.6016,3.188267 0.78186,6.256 -1.26293,0.2208 -1.34613,-0.7392 -2.3456,-0.781867 0.0608,4.232534 4.93654,5.620267 2.3456,10.1664 3.2864,0.158934 1.7216,-4.5344 4.69227,-4.692266 1.60427,2.7872 -1.99253,6.059733 -0.78187,10.948266 -2.5248,-0.699733 -1.09866,2.5504 -2.3456,3.128534 -1.264,0.2208 -1.3472,-0.7392 -2.34666,-0.781867 -0.21867,2.647467 -1.24374,4.490667 -0.7808,7.8208 -2.45227,-0.5408 -1.01974,-2.0864 -0.78187,-3.9104 -3.12853,-0.5216 -3.14347,2.069333 -3.12853,4.692267 -0.656,2.484266 -1.03147,-1.387734 -0.78187,-2.346667 0.0341,-1.3376 -0.58133,-2.0256 -1.56373,-2.3456 0.84693,-2.842667 0.47573,-8.232533 -0.78187,-12.512 -0.0267,-0.09067 -0.65387,-0.2688 -0.78187,-0.781867 -0.35306,-1.4144 0.30934,-2.5632 -1.56373,-2.3456 -0.0587,-3.3312 -1.3088,-5.4688 -0.78187,-9.384533 0.73067,0.573867 1.184,1.421867 1.56374,2.3456 1.40266,0.0992 1.65013,-0.9568 3.12853,-0.781867 1.6128,-0.212266 0.18667,-3.463466 2.34667,-3.128533 v -5.474133 c 1.26293,-0.2208 1.34613,0.7392 2.3456,0.781866 2.144,-1.762133 2.99733,-4.8192 7.808,-3.9104 z m -12.512,22.6784 c 0.18773,1.115734 1.28853,1.3184 1.5648,2.3456 2.98346,-0.405333 3.9872,-2.789333 3.9104,-6.256 -1.55414,-0.0096 -0.9952,-2.133333 -3.12854,-1.563733 1.19467,3.8048 -2.272,2.944 -2.35733,5.474133 z"
       id="path13"
       style="fill:#000000;stroke-width:1.06666672"
       inkscape:connector-curvature="0" /><path
       d="m 167.38133,47.703467 c 1.06134,0.242133 0.64854,1.957333 0.78187,3.128533 -1.59147,-0.516267 -1.6896,1.218133 -2.3456,1.563733 -0.6144,0.324267 -1.7056,-0.2752 -2.34667,0 -0.8512,0.3648 -0.69013,2.5888 -2.3456,0.781867 -0.0533,-3.962667 4.39467,-3.4304 6.26134,-5.474133 z"
       id="path15"
       style="fill:#000000;stroke-width:1.06666672"
       inkscape:connector-curvature="0" /><path
       d="m 175.97867,64.125867 c 1.264,-0.2208 1.3472,0.7392 2.3456,0.781866 1.2896,0.896 0.2432,2.533334 0.78186,4.692267 0.0683,0.274133 0.7712,1.0624 0.78187,0.781867 -0.0661,1.664 -2.512,3.005866 -1.5648,5.474133 -1.64587,-0.747733 -0.59947,-2.669867 -0.7808,-3.9104 -0.37333,-2.5824 -1.41867,-5.303467 -1.55733,-7.819733 z"
       id="path17"
       style="fill:#000000;stroke-width:1.06666672"
       inkscape:connector-curvature="0" /><path
       d="m 129.056,68.036267 c 0.2368,3.325866 -4.16853,0.795733 -5.47413,0.781866 0.3552,-0.08213 0.52586,-1.467733 0.78186,-1.563733 1.06027,-0.397867 1.31307,0.807467 1.5648,0.781867 0.672,-0.06933 3.11467,-1.5968 3.12534,0 z"
       id="path19"
       style="fill:#000000;stroke-width:1.06666672"
       inkscape:connector-curvature="0" /><path
       d="m 202.57067,68.818133 c 1.38346,1.5776 2.44266,-0.206933 3.90933,0 0.36373,0.0512 0.52373,1.453867 0.78187,1.563734 1.2224,0.5216 1.7856,-1.2768 3.12853,-0.781867 0.0107,1.554133 2.13333,0.994133 1.5648,3.128533 h -3.9104 c -0.26667,2.872534 4.48853,0.724267 3.12853,4.692267 -0.69546,-0.608 -1.7664,-0.8416 -3.12853,-0.781867 -0.23253,2.056534 3.0336,0.615467 2.3456,3.128534 -1.85813,-1.214934 -4.67947,0.510933 -7.03893,0 -0.33494,-0.07253 -0.54934,-1.486934 -0.7808,-1.563734 -0.27094,-0.0896 -1.39947,0.202667 -1.5648,0 -0.65814,-0.804266 -0.752,0.02987 -1.56374,-0.781866 -0.5216,-0.5216 -0.96213,-1.1232 -0.78186,-2.346667 1.26293,-0.2208 1.34613,0.7392 2.3456,0.781867 1.4464,-0.117334 0.48,-2.648534 1.5648,-3.128534 1.84426,1.147734 1.45386,1.650134 3.90933,0.781867 -1.0048,-2.024533 -1.61707,-2.4576 -3.90933,-1.563733 -0.0107,-1.0432 -0.0107,-2.085334 -0.0107,-3.128534 z"
       id="path21"
       style="fill:#000000;stroke-width:1.06666672"
       inkscape:connector-curvature="0" /><path
       d="m 131.40267,70.381867 h 1.56373 V 71.9456 h -1.56373 z"
       id="path23"
       style="fill:#000000;stroke-width:1.06666672"
       inkscape:connector-curvature="0" /><path
       d="m 100.12373,71.946667 c 2.1632,1.746133 3.7504,4.069333 8.6016,3.128533 1.2192,6.597333 -8.33386,5.147733 -5.47413,10.948267 -3.856,-0.677334 -7.2576,-1.0592 -10.948267,0.781866 -0.874666,0.436267 -0.917333,1.0688 -1.563733,1.563734 -0.542933,0.414933 -1.778133,0.2976 -2.346667,0.781866 -0.264533,0.226134 0.248534,1.3152 0,1.563734 -0.2656,0.2656 -1.281066,-0.251734 -1.563733,0 -1.000533,0.888533 -0.632533,1.136 -2.3456,1.563733 0.02987,-0.0075 -2.2912,0.714667 -2.346667,0.781867 -0.532266,0.650666 -1.9552,0.741333 -3.9104,1.563733 -2.004266,0.8448 -3.2384,2.644267 -5.474133,2.346667 -2.084267,0.782933 -2.578133,3.156263 -3.9104,4.692263 -3.349333,-0.48213 -3.188267,2.54614 -6.256,2.3456 0.02133,0.76054 0.9568,0.60694 1.563733,0.78187 -0.792533,2.07467 -3.124266,1.9392 -4.692266,3.12853 -1.320534,1.00054 -2.5696,2.79147 -3.9104,3.9104 -1.453867,1.2128 -2.327467,2.64107 -3.9104,3.9104 -0.272,0.21867 -1.349334,-0.2624 -1.563734,0 -0.6368,0.77867 -0.8224,2.41174 -3.128533,2.3456 -0.336,3.0848 -0.05973,2.40534 -2.3456,4.69227 -0.763733,0.76373 -1.9424,1.6832 -2.346667,2.34667 -0.344533,0.5664 0.264534,1.7312 0,2.3456 -0.285866,0.66666 -1.505066,0.45226 -1.563733,1.56373 -0.02667,0.5152 0.250667,1.90933 0,2.3456 -0.334933,0.58453 -1.288533,-0.2464 -1.563733,0.78187 -0.446934,1.67573 -2.536534,4.89493 -4.692267,6.256 1.912533,4.04906 -1.4176,7.37813 -3.9104,9.38453 0.177067,1.1264 2.333867,0.272 2.346667,1.56373 -0.315734,3.07307 -3.437867,3.33974 -3.9104,6.256 -2.705067,-0.61973 -3.301334,0.86934 -4.692267,1.56374 -0.0672,1.1104 -0.129067,2.2144 0.781867,2.3456 -0.402134,1.73546 -1.5168,1.03466 -2.346667,2.34666 -1.44,2.27734 -1.544533,5.27254 -3.9104,7.03787 0.317867,2.64107 3.031467,-2.08107 2.3456,1.56373 0.375467,2.4416 -1.032533,0.3712 -1.563733,0.78187 -1.159467,0.89813 -0.5984,2.7072 -2.3456,3.9104 1.0304,2.42347 -2.317867,4.33813 0,5.47413 -0.177067,1.1264 -2.333867,0.27307 -2.346667,1.56374 -1.1328,2.9568 2.149333,1.5008 1.563733,3.9104 -1.1968,0.15573 -0.923733,3.52106 -1.563733,4.69226 -0.157867,0.28907 -0.5504,0.20587 -0.781867,0.78187 -0.450133,1.11893 -0.219733,2.02987 -0.781866,3.12853 -0.203734,0.39894 -1.450667,1.24587 -1.563734,1.56374 -0.445866,1.25973 0.0085,3.3376 -0.781866,4.69226 -1.1573337,-0.2208 -0.5216,-1.9872 -0.781867,-3.12853 -0.174933,-0.76587 -0.8394667,-1.15733 -0.7818667,-2.34667 0.1045334,-2.1536 2.6133337,-5.17866 3.1285337,-8.6016 0.536533,-3.5744 -0.491734,-7.4912 0,-10.1664 0.426666,-2.3232 1.649066,-3.82293 2.3456,-5.47413 -0.5504,-4.62187 0.8416,-7.92427 2.346666,-11.73013 0.09173,-0.23147 0.625067,-0.15574 0.781867,-0.78187 0.456533,-1.8272 1.842133,-2.69547 2.346667,-5.47413 3.445333,0.57813 3.2032,-2.5312 5.474133,-3.12854 0.3712,-3.41013 3.137067,-6.29226 3.9104,-9.38453 0.397867,-1.59147 0.03733,-1.8464 0.781867,-3.9104 0.146133,-0.4032 1.4752,-1.27147 1.563733,-1.56373 0.1952,-0.64427 -0.311467,-1.75787 0,-2.3456 0.365867,-0.68907 1.870933,-0.95574 2.3456,-1.5648 1.003733,-1.28854 1.3344,-5.06667 3.9104,-5.47414 v -3.12853 c 1.565867,-0.8768 2.776533,-1.80053 3.9104,-3.12853 1.082667,-1.2672 1.291733,-2.8 2.346667,-3.9104 2.053333,-2.1632 4.477866,-3.76214 7.037866,-5.47414 -0.2496,-1.81333 0.125867,-3.0016 0.781867,-3.9104 2.210133,0.6464 2.0256,-1.10186 3.9104,-0.78186 2.16,0.33493 0.733867,-2.9152 2.346667,-3.12854 0.923733,-0.90026 2.763733,-0.88533 4.692266,-0.78186 2.749867,-0.8992 3.013334,-4.28587 4.692267,-6.256003 1.842133,0.01813 2.301867,-1.3472 4.692267,-0.781867 1.4112,-0.260267 1.3888,-1.595733 2.3456,-2.3456 0.4992,-0.391467 0.996266,-0.420267 1.563733,-0.781867 0.264533,-0.168533 2.1344,-0.523733 2.346667,-0.781866 0.07467,-0.09173 -0.09813,-0.736 0,-0.781867 0.283733,-0.1344 1.377066,0.228267 1.563733,0 0.0736,-0.0896 -0.09493,-0.738133 0,-0.781867 0.740267,-0.340266 3.8464,-0.354133 3.9104,-1.563733 0.04907,-0.9312 0.989867,-0.3904 1.563733,-0.781867 0.5056,-0.344533 1.0944,-1.2672 1.563734,-1.5648 1.386666,-0.8768 2.996266,-0.993066 3.9104,-2.3456 2.801066,-0.06613 4.5184,-1.216 7.038933,-1.563733 0.0768,-3.623467 -0.6336,-7.982933 1.56373,-9.434667 z"
       id="path25"
       style="fill:#000000;stroke-width:1.06666672"
       inkscape:connector-curvature="0" /><path
       d="m 118.89067,72.728533 h 3.12853 c -0.1472,2.199467 -1.36,3.332267 -3.9104,3.128534 0.61867,-0.696534 0.85333,-1.7664 0.78933,-3.128534 z"
       id="path27"
       style="fill:#000000;stroke-width:1.06666672"
       inkscape:connector-curvature="0" /><path
       d="m 214.304,74.292267 c 1.51787,-0.654934 1.78667,1.400533 2.3456,1.563733 1.296,0.376533 2.5408,-1.653333 3.9104,0 0.63893,2.984533 -1.66507,3.0272 -3.12853,3.9104 0.12693,0.909867 -0.1728,1.392 -0.78187,1.563733 -0.60907,5.041067 1.1552,7.7088 1.5648,11.730134 -0.69653,0.346666 -1.39947,0.686933 -1.5648,1.563733 -2.4704,0.1248 -4.72,0.02773 -5.47413,-1.563733 -1.67574,0.9312 -4.37014,0.8448 -5.47414,2.346666 0.10347,1.927467 0.11734,3.767467 -0.78186,4.692267 -1.47947,0.86613 -3.69494,0.99733 -5.47414,1.56373 -2.25706,0.61014 -1.952,3.7824 -3.12853,5.47414 h -5.4752 c -0.66453,2.95253 2.5984,3.67146 0.78187,5.47413 -1.59467,-0.2304 -1.53387,-2.11627 -3.12854,-2.34667 0.51094,-4.07466 -0.92586,-7.0656 0,-9.38453 3.472,-0.60373 3.14774,2.58667 4.69227,3.9104 2.7872,-0.86187 2.05013,-5.248 3.12853,-7.8208 3.87307,0.171733 4.72534,3.7792 7.81974,0.781867 -1.296,-2.654934 -3.13174,-4.522667 -0.78187,-7.037867 2.28907,-0.203733 2.4032,1.768533 4.69227,1.563733 1.16266,-0.6624 1.13173,-2.517333 1.56373,-3.9104 2.28907,-0.203733 2.4032,1.768534 4.69227,1.563734 1.84213,-0.661334 -0.6496,-3.4304 -0.78187,-4.692267 -0.4864,-2.119467 -3.2672,-1.9456 -3.12853,-4.6912 3.82933,0.485333 2.88,-3.856 3.872,-6.251733 z"
       id="path29"
       style="fill:#000000;stroke-width:1.06666672"
       inkscape:connector-curvature="0" /><path
       d="m 130.624,75.074133 c 0.97813,0.112 0.5792,1.444267 0.78187,2.346667 0.54293,2.4192 1.18826,7.7824 0,11.730133 -1.1264,-0.229333 -0.5632,-1.9744 -0.78187,-3.128533 -0.1984,-1.048533 -0.78827,-1.5136 -0.78187,-2.3456 0.0107,-1.3056 0.77654,-2.606933 0.78187,-3.9104 0.0107,-1.7664 -1.23733,-3.415467 0,-4.692267 z"
       id="path31"
       style="fill:#000000;stroke-width:1.06666672"
       inkscape:connector-curvature="0" /><path
       d="m 113.41867,79.7664 c -0.69547,-0.606933 -1.7664,-0.840533 -3.12854,-0.781867 0.13867,-2.2688 3.712,-1.8848 3.12534,0.781867 z"
       id="path33"
       style="fill:#000000;stroke-width:1.06666672"
       inkscape:connector-curvature="0" /><path
       d="m 126.70933,78.202667 c 1.37067,1.1776 0.8416,4.395733 0.78187,7.037866 -0.0501,2.212267 0.32107,5.150934 -0.78187,6.256 -1.3376,-1.1136 -0.86506,-4.740266 -0.7808,-7.037866 0.0853,-2.3264 0.10667,-4.900267 0.77867,-6.256 z"
       id="path35"
       style="fill:#000000;stroke-width:1.06666672"
       inkscape:connector-curvature="0" /><path
       d="m 120.45867,83.6768 c 0.85013,0.193067 0.5312,1.5552 1.5648,1.563733 -1.8912,2.539734 -2.69974,6.1632 -3.9104,9.384534 -0.80747,-0.0021 -0.54934,-0.980267 -0.78187,-1.563734 -0.25813,-0.645333 -1.31093,-2.2368 -0.7808,-4.692266 0.0288,-0.1376 0.74667,-0.114134 0.7808,-0.781867 0.064,-1.303467 2.208,-2.653867 3.12533,-3.9104 z"
       id="path37"
       style="fill:#000000;stroke-width:1.06666672"
       inkscape:connector-curvature="0" /><path
       d="m 111.072,85.240533 c -1.84533,2.516267 -3.15733,-2.749866 0,0 z"
       id="path39"
       style="fill:#000000;stroke-width:1.06666672"
       inkscape:connector-curvature="0" /><path
       d="m 104.816,86.805333 c 2.26133,0.344534 3.5648,1.648 3.9104,3.9104 -2.032,0.468267 -2.81387,-0.3136 -2.3456,-2.346666 -1.33013,0.286933 -1.4752,-0.610134 -1.56373,-1.563734 z"
       id="path41"
       style="fill:#000000;stroke-width:1.06666672"
       inkscape:connector-curvature="0" /><path
       d="m 111.85067,87.5872 c 2.16,-0.334933 0.73386,2.9152 2.34666,3.128533 -1.13066,2.308267 -3.14666,-0.932266 -2.34666,-3.128533 z"
       id="path43"
       style="fill:#000000;stroke-width:1.06666672"
       inkscape:connector-curvature="0" /><path
       d="m 122.02667,89.150933 c 0.98346,0.193067 0.78826,1.5552 0,1.563734 v 7.037866 c -0.11627,2.403197 2.75093,3.516797 0.7808,5.474137 -0.7296,-0.57387 -1.184,-1.42187 -1.56374,-2.34667 -0.69546,0.60693 -1.76533,0.8416 -3.12853,0.78187 1.3472,-2.12587 2.59413,-4.42987 3.12853,-7.038937 0.2784,-1.355733 -0.99626,-1.6704 -0.78186,-3.128533 0.14933,-1.042133 1.472,-1.213867 1.568,-2.343467 z"
       id="path45"
       style="fill:#000000;stroke-width:1.06666672"
       inkscape:connector-curvature="0" /><path
       d="m 99.341867,98.535467 c -0.0096,1.258666 -0.910934,1.740803 -1.563734,2.345603 -1.082666,1.00373 -3.0848,1.58613 -4.692266,3.12853 -2.112,-0.31573 2.586666,-5.8336 -2.3456,-4.692267 0.555733,-2.050133 4.464,-0.749866 4.692266,-3.128533 1.9968,0.08747 2.736,1.4336 3.909334,2.346667 z"
       id="path47"
       style="fill:#000000;stroke-width:1.06666672"
       inkscape:connector-curvature="0" /><path
       d="m 105.59787,100.88107 c 2.6272,-0.65174 0.9504,0.88426 0.78186,2.34666 -0.13013,1.1296 0.0939,4.75094 -0.78186,2.3456 z"
       id="path49"
       style="fill:#000000;stroke-width:1.06666672"
       inkscape:connector-curvature="0" /><path
       d="m 122.02667,104.0096 c 2.77866,-1.216 0.47146,2.656 2.3456,2.34667 -0.92374,1.1616 -0.67734,3.49333 -3.12854,3.12853 0,-2.08 -0.30933,-4.46507 0.77867,-5.47307 z"
       id="path51"
       style="fill:#000000;stroke-width:1.06666672"
       inkscape:connector-curvature="0" /><path
       d="m 92.304,107.92533 c 0.760533,0.0213 0.606933,0.9568 0.781867,1.56374 -0.110934,4.39893 0.142933,10.79893 0,16.4224 -0.120534,4.7616 1.607466,11.70773 -3.9104,11.73013 0.784,-0.51093 -0.232534,-4.64427 0.781866,-5.47413 0.6752,-0.55254 1.3152,-0.5536 1.563734,-1.56374 0.484266,-1.97013 -0.3776,-4.10346 0.781866,-6.256 1.216,-2.77973 -2.656,-0.47146 -2.346666,-2.3456 -0.2496,-3.1168 -0.04267,-5.77813 1.563733,-7.03893 0.161067,-2.45333 -0.525867,-5.74933 0.784,-7.04 z"
       id="path53"
       style="fill:#000000;stroke-width:1.06666672"
       inkscape:connector-curvature="0" /><path
       d="m 64.933333,115.744 c 1.262934,-0.2208 1.346134,0.7392 2.3456,0.78187 0.5024,0.66773 0.162134,2.62186 0.781867,3.12853 1.4272,1.168 0.964267,4.2784 1.563733,7.03893 0.139734,0.64427 0.769067,0.77014 0.781867,1.56374 0.0416,2.52053 -2.701867,6.0896 -1.563733,10.94826 -3.656534,-3.21813 -0.450134,-8.92266 -0.781867,-13.29386 -0.333867,-4.40534 -1.872,-7.05067 -3.127467,-10.16534 z"
       id="path55"
       style="fill:#000000;stroke-width:1.06666672"
       inkscape:connector-curvature="0" /><path
       d="m 60.241067,117.30133 c 3.424,0.48534 3.015466,4.80427 3.9104,7.8208 -2.432,-1.472 -3.0272,-4.78933 -3.9104,-7.81866 z"
       id="path57"
       style="fill:#000000;stroke-width:1.06666672"
       inkscape:connector-curvature="0" /><path
       d="m 71.9712,118.09067 c 2.018133,0.0672 0.8224,3.34826 3.9104,2.34666 -0.6944,2.70294 -0.331733,6.08427 0,9.38454 0.574933,5.73333 -1.552,13.1008 2.3456,15.64053 2.661333,-0.92053 1.314133,-4.46187 1.563733,-7.03787 0.2432,-2.50773 0.402134,-4.11306 0,-7.03893 -0.266666,-1.94027 -0.117333,-4.29867 0,-6.256 0.07147,-1.2032 -1.079466,-5.09867 1.563734,-4.69227 0.6592,10.6016 0.9824,20.672 -0.781867,30.4992 -1.4784,0.0757 -0.922667,-1.55306 -1.563733,-2.34666 -0.385067,-0.47574 -2.199467,-0.0245 -1.5648,-1.56374 -2.458667,-0.112 -2.686934,2.00534 -3.128534,3.9104 -2.7392,-1.0848 -1.328,-4.85013 -1.563733,-7.03893 -0.1696,-1.5712 -0.832,-3.27787 -0.781867,-4.69227 0.0672,-1.9008 1.2768,-3.6128 1.563734,-5.47413 C 74.4,128.14187 72.9088,123.2032 71.9712,118.10453 Z"
       id="path59"
       style="fill:#000000;stroke-width:1.06666672"
       inkscape:connector-curvature="0" /><path
       d="m 57.8944,121.216 c 2.0448,0.8224 2.5568,3.1776 2.346667,6.256 -2.440534,-0.42667 -1.2,-4.53333 -2.346667,-6.25067 z"
       id="path61"
       style="fill:#000000;stroke-width:1.06666672"
       inkscape:connector-curvature="0" /><path
       d="m 130.624,121.216 c 2.42773,0.5888 3.15413,5.65867 1.56373,7.8208 -2.176,-0.94933 -1.46133,-4.8 -1.568,-7.81867 z"
       id="path63"
       style="fill:#000000;stroke-width:1.06666672"
       inkscape:connector-curvature="0" /><path
       d="m 100.9056,124.34133 c 1.60213,1.58187 0.56533,5.2544 0.78187,8.60267 0.22826,3.53493 1.3824,6.6528 0.78186,10.1664 -2.12373,0.55893 0.55894,-3.68747 -1.56373,-3.12853 0.34773,-6.57067 -0.80747,-10.42134 0,-15.648 z"
       id="path65"
       style="fill:#000000;stroke-width:1.06666672"
       inkscape:connector-curvature="0" /><path
       d="m 54.765867,128.256 c 0.909866,-0.12693 1.392,0.1728 1.563733,0.78187 1.979733,2.74453 -0.0053,6.93013 0,10.1664 -0.978133,-0.112 -0.5792,-1.44427 -0.781867,-2.3456 -0.3872,-1.728 -1.1968,-4.704 -0.781866,-8.59734 z"
       id="path67"
       style="fill:#000000;stroke-width:1.06666672"
       inkscape:connector-curvature="0" /><path
       d="m 62.586667,129.81333 c 3.5744,-0.0256 0.04053,2.74347 0.781866,4.6912 -1.726933,-0.096 -0.331733,-3.31733 -0.781866,-4.69333 z"
       id="path69"
       style="fill:#000000;stroke-width:1.06666672"
       inkscape:connector-curvature="0" /><path
       d="m 46.946133,130.60267 c 1.1264,0.17706 0.273067,2.33386 1.563734,2.34666 0.4576,1.39627 -1.432534,2.464 -1.563734,3.9104 -0.114133,1.25654 0.605867,1.808 0.781867,3.12854 0.577067,4.31786 -1.134933,9.53813 -0.781867,14.0768 -0.606933,1.42613 -0.840533,-0.46827 -0.781866,-1.56374 v -3.12853 c -1.0144,-2.26987 -1.0144,-5.54987 0,-7.8208 0.141866,-1.70667 -0.64,-2.48853 -2.346667,-2.34667 -0.370133,-2.45546 2.1056,-2.06613 2.346667,-3.9104 -0.103467,-1.93066 -0.119467,-3.776 0.781866,-4.69333 z"
       id="path71"
       style="fill:#000000;stroke-width:1.06666672"
       inkscape:connector-curvature="0" /><path
       d="m 50.856533,135.296 c 2.730667,0.16107 3.435734,5.8688 -0.781866,4.69227 -0.567467,-2.4 1.348266,-2.304 0.781866,-4.69334 z"
       id="path73"
       style="fill:#000000;stroke-width:1.06666672"
       inkscape:connector-curvature="0" /><path
       d="m 136.87467,135.296 c 2.04906,1.04107 1.49333,3.47093 0.78186,5.47413 -1.64266,-0.64 -2.13333,-4.128 -0.77866,-5.472 z"
       id="path75"
       style="fill:#000000;stroke-width:1.06666672"
       inkscape:connector-curvature="0" /><path
       d="m 111.072,137.632 c 1.0496,0.51413 1.456,1.67147 1.56373,3.12853 -2.35733,0.8 -1.38666,-1.73866 -1.568,-3.12533 z"
       id="path77"
       style="fill:#000000;stroke-width:1.06666672"
       inkscape:connector-curvature="0" /><path
       d="m 140.01067,138.42133 h 1.56373 v 1.56374 h -1.56373 v -1.568 z"
       id="path79"
       style="fill:#000000;stroke-width:1.06666672"
       inkscape:connector-curvature="0" /><path
       d="m 91.521067,139.2 c 0.909866,-0.12693 1.392,0.1728 1.563733,0.78187 v 15.64053 c -1.125333,-0.2304 -0.5632,-1.9744 -0.781867,-3.12853 -0.1984,-1.04854 -0.789333,-1.5136 -0.781866,-2.34667 0.0128,-1.56907 0.865066,-2.33813 0.781866,-3.9104 -0.112,-2.144 -1.227733,-4.36267 -0.781866,-7.02933 z"
       id="path81"
       style="fill:#000000;stroke-width:1.06666672"
       inkscape:connector-curvature="0" /><path
       d="m 42.253867,142.32533 c -0.3008,2.56747 -2.286934,3.44747 -3.128534,5.47414 -2.663466,-1.6544 -0.293333,-2.27094 0,-4.69227 1.403734,0.10667 1.650134,-0.94933 3.128534,-0.77867 z"
       id="path83"
       style="fill:#000000;stroke-width:1.06666672"
       inkscape:connector-curvature="0" /><path
       d="m 43.035733,147.79733 c 2.363734,2.66987 -0.5568,6.70827 0,10.1664 C 41.873067,156.7808 41.776,154.5312 41.472,152.4896 c -2.130133,1.26827 -1.408,5.0048 -2.346667,7.8208 -0.370133,1.11147 -0.1056,1.64373 -1.563733,1.56373 0.912,-3.35146 -0.315733,-6.22293 -0.781867,-10.1664 1.554134,-1.3024 0.994134,0.0704 3.128534,0 1.729066,-0.61866 1.956266,-2.73066 3.127466,-3.91466 z"
       id="path85"
       style="fill:#000000;stroke-width:1.06666672"
       inkscape:connector-curvature="0" /><path
       d="m 28.958933,163.44533 c 1.6576,0.24534 0.1696,3.70667 -1.563733,3.12854 -0.5696,-2.13334 1.554133,-1.57867 1.563733,-3.12534 z"
       id="path87"
       style="fill:#000000;stroke-width:1.06666672"
       inkscape:connector-curvature="0" /><path
       d="m 22.702933,165.792 c 1.813334,0.21867 1.797334,2.08853 0.781867,3.12853 -1.061333,-0.24533 -0.648533,-1.96266 -0.781867,-3.12533 z"
       id="path89"
       style="fill:#000000;stroke-width:1.06666672"
       inkscape:connector-curvature="0" /><path
       d="m 32.869333,166.57067 c 2.215467,0.81493 3.258667,0.81493 5.474134,0 1.998933,2.17173 2.695466,5.64586 2.3456,10.1664 0.09813,1.72693 3.317333,0.3328 4.692266,0.78186 -0.2592,3.75574 -0.448,4.68374 -0.781866,9.38454 -1.188267,0.0672 -0.306134,-1.67894 -0.781867,-2.3456 -0.3456,-0.48534 -2.1088,-0.3872 -2.3456,-0.78187 -0.536533,-0.8928 -0.488533,-2.3904 -0.781867,-3.12853 -0.475733,-1.19894 -0.9152,-2.288 -1.563733,-3.9104 -0.302933,-0.7584 -1.191467,-1.5392 -0.781867,-3.9104 -4.584533,0.688 -1.607466,5.38133 -1.563733,7.81973 0.113067,6.32 -0.228267,11.13173 -1.563733,16.4224 -0.594134,2.35413 -0.9696,4.3776 -1.563734,6.256 -0.08107,0.25707 -0.7424,0.0213 -0.781866,0.78187 -0.0192,0.35946 -0.555734,1.66186 -0.781867,2.3456 -0.394667,1.1936 -1.463467,2.91733 -1.563733,4.6912 -0.08747,1.53813 -1.006934,2.64 -1.563734,3.9104 -3.278933,-2.3264 -0.768,-5.38454 0,-7.81974 0.0384,-0.12266 0.647467,-0.24426 0.781867,-0.78186 0.5024,-2.0096 1.5648,-4.06187 2.3456,-6.256 0.530133,-1.48907 0.245333,-3.14347 0.781867,-4.69227 0.139733,-0.40533 1.4752,-1.26933 1.563733,-1.56373 0.2176,-0.71787 -0.193067,-1.62134 0,-2.34667 0.7712,-2.8928 2.068267,-5.424 1.563733,-8.6016 -0.01173,-2.33387 -2.033066,-2.6592 -2.3456,-4.69227 0.658134,-1.9488 1.024,-4.18986 0.781867,-7.03893 0.376533,-2.47467 -2.402133,-1.78133 -1.565867,-4.704 z"
       id="path91"
       style="fill:#000000;stroke-width:1.06666672"
       inkscape:connector-curvature="0" /><path
       d="m 20.357333,173.61067 c 1.370667,0.71466 2.7168,1.45386 2.3456,3.9104 -1.9104,0.77973 -1.666133,0.26026 -4.692266,0.78186 -0.288,-1.33013 0.610133,-1.4752 1.563733,-1.56373 -0.330667,-1.632 0.536533,-2.06933 0.782933,-3.12533 z"
       id="path93"
       style="fill:#000000;stroke-width:1.06666672"
       inkscape:connector-curvature="0" /><path
       d="m 57.8944,178.304 c 1.4496,-1.9008 0.528,5.1552 0.781867,7.03787 -1.4496,1.89866 -0.526934,-5.16267 -0.781867,-7.04 z"
       id="path95"
       style="fill:#000000;stroke-width:1.06666672"
       inkscape:connector-curvature="0" /><path
       d="m 81.355733,178.304 c 1.4976,1.54987 0.752,3.9872 0.781867,6.256 0.048,3.62133 0.3552,6.864 0.781867,10.1664 0.212266,1.648 0.192,3.82293 0,5.47413 -0.101334,0.87574 0.810666,3.9328 -1.563734,3.12854 0.257067,-10.99734 -0.7168,-16.10667 0,-25.01334 z"
       id="path97"
       style="fill:#000000;stroke-width:1.06666672"
       inkscape:connector-curvature="0" /><path
       d="m 30.523733,179.86133 c 2.369067,-0.1472 1.0848,2.83414 1.563734,5.47414 0.178133,0.97813 1.064533,4.3712 0.781866,7.03893 -0.129066,1.2128 -0.3616,3.47307 -0.781866,4.69227 -0.0992,0.28586 -0.740267,-0.002 -0.781867,0.78186 -0.05867,1.12747 -1.488,1.69067 -1.563733,3.12854 -0.06933,1.31093 -0.337067,1.48906 -1.563734,1.56373 1.6064,-7.264 3.915734,-14.336 2.3456,-22.67733 z"
       id="path99"
       style="fill:#000000;stroke-width:1.06666672"
       inkscape:connector-curvature="0" /><path
       d="m 27.3952,182.208 c 1.5072,0.52587 -0.494933,4.32533 -0.781867,5.47413 -0.3648,1.46027 -0.0096,2.20267 -0.781866,3.12854 -0.427734,1.136 0.914133,4.0416 -0.781867,3.9104 v -4.69227 c 1.019733,-2.35733 0.328533,-6.44267 2.3456,-7.81867 z"
       id="path101"
       style="fill:#000000;stroke-width:1.06666672"
       inkscape:connector-curvature="0" /><path
       d="m 18.7936,183.776 c 1.182933,-2.76053 1.482667,1.44107 0.781867,1.56373 -0.462934,0.0747 -0.9824,-1.09866 -0.781867,-1.568 z"
       id="path103"
       style="fill:#000000;stroke-width:1.06666672"
       inkscape:connector-curvature="0" /><path
       d="m 77.444267,185.344 c 1.1072,-0.0224 1.121066,3.504 0.781866,5.47413 -0.4704,2.7392 -0.629333,-0.096 -0.781866,-1.56373 -0.181334,-1.74933 -1.3216,-1.86667 0,-3.904 z"
       id="path105"
       style="fill:#000000;stroke-width:1.06666672"
       inkscape:connector-curvature="0" /><path
       d="m 39.908267,186.90133 c 2.2368,0.10987 1.4304,3.26294 1.563733,5.47414 -2.2368,-0.10667 -1.4304,-3.25334 -1.563733,-5.472 z"
       id="path107"
       style="fill:#000000;stroke-width:1.06666672"
       inkscape:connector-curvature="0" /><path
       d="m 43.8176,188.46933 c 3.492267,-0.3648 2.743467,3.51254 3.9104,5.47414 -1.402667,-0.0992 -1.649067,0.9568 -3.128533,0.78186 -1.208534,-1.13066 -0.688,-4 -0.781867,-6.25066 z"
       id="path109"
       style="fill:#000000;stroke-width:1.06666672"
       inkscape:connector-curvature="0" /><path
       d="m 76.663467,194.73067 c 0.696533,0.3456 1.3984,0.68693 1.563733,1.56373 0.04373,2.78827 -0.05653,5.41333 0,8.6016 0.05013,2.81173 0.5632,5.65013 0,7.03893 -3.5328,0.9888 -0.2752,-3.63733 -1.563733,-4.6912 -0.5856,-0.47893 -1.4848,-0.5856 -1.563734,-1.5648 -0.219733,-2.70933 2.644267,-6.15466 1.563734,-10.944 z"
       id="path111"
       style="fill:#000000;stroke-width:1.06666672"
       inkscape:connector-curvature="0" /><path
       d="m 20.357333,197.856 c 0.5088,-2.2048 0.907734,1.80053 0.781867,2.3456 -0.362667,1.568 -1.4688,0.62933 -0.781867,-2.34667 z"
       id="path113"
       style="fill:#000000;stroke-width:1.06666672"
       inkscape:connector-curvature="0" /><path
       d="m 7.8442667,203.328 h 2.3456003 c 0.04267,4.82133 1.620266,8.00427 0.781866,12.512 -0.2368,1.2736 -0.304,0.82453 -0.781866,1.56373 -1.1669337,1.80267 -0.05547,2.17814 0,5.47414 0,-0.0384 -0.906667,0.1568 -0.781867,0.78186 0.0384,0.18987 0.914133,-0.001 0.781867,0.78187 -0.01173,0.0704 -0.749867,0.16533 -0.781867,0.78187 -0.065067,1.2224 0.3946667,5.53706 0.781867,7.81973 0.6976,4.10453 2.971733,7.7888 0.781866,11.73013 -0.229333,0.4128 -0.734933,-0.10346 -0.781866,0.78187 -0.016,0.2944 0.200533,2.18347 0,2.3456 -0.09173,0.0747 -0.7360003,-0.0971 -0.781867,0 -0.1344,0.2848 0.2282667,1.37813 0,1.5648 -0.6997333,0.57173 -0.7882667,1.68107 -1.5637333,3.9104 -0.094933,0.272 0.2058666,1.39627 0,1.56373 -0.624,0.51094 -1.4154667,0.5664 -1.5637334,1.5648 -0.24,1.6032 0.7189334,3.85707 0.7818667,5.47414 0.1162667,2.97173 -0.8469333,5.296 -0.7818667,7.81973 -0.1386666,3.2288 2.6410667,2.32427 3.1285334,3.12853 0.4704,3.1872 -1.7621334,3.60854 -3.1285334,5.47414 -0.3541333,0.4832 -0.6208,0.90026 -0.7818666,1.5648 0.8725333,2.6336 1.1626666,6.10986 2.3466666,8.6016 0.8896,1.87626 1.936,3.8784 3.9103997,4.69226 v 3.90934 c -0.238933,1.80373 2.2592,0.86826 2.346667,2.34666 0.401067,1.98614 -0.0384,3.54134 0.781867,6.256 0.106666,0.352 0.795733,0.8992 0.781866,0.7808 0.2144,1.86667 -0.9216,3.49867 0,4.69227 0.933334,1.15627 2.013867,0.94507 3.128534,1.56373 0.718933,0.4 1.157333,2.65387 3.128533,1.5648 0.5568,3.48907 1.0752,6.0928 1.563733,10.16534 0.02773,0.23466 -0.16,1.4336 0,1.5648 0.781867,0.64 0.145067,1.13706 0,3.9104 -0.189866,3.5968 0.1376,7.67786 0,12.512 0.114134,1.70986 1.970134,1.67893 3.9104,1.56373 -0.309333,5.68747 0.7456,12.736 -0.781866,17.20427 -2.455467,0.37013 -2.066134,-2.10454 -3.9104,-2.3456 -0.08533,2.5568 0.4352,6.23146 -1.563734,7.8208 -1.8496,1.46986 -0.7392,7.97333 1.563734,10.94826 4.3872,0.37227 6.333866,1.20214 7.8208,-2.3456 0.1984,-2.80426 -2.3488,-2.86613 -2.3456,-5.47413 2.549333,0.1408 3.7632,-1.83893 3.9104,1.56373 2.210133,0.6464 2.0256,-1.10186 3.9104,-0.78186 -1.077334,3.61493 -3.437867,5.94666 -5.474134,8.60266 -3.933866,-0.54613 -5.450666,1.32587 -9.384533,0.7808 -0.05973,2.66667 2.898133,2.3168 5.474133,2.34667 1.7152,-0.89173 3.195734,-2.0192 6.256,-1.5648 -0.725333,0.59307 -1.854933,2.02773 -3.128533,2.3456 -1.2096,0.30293 -1.934933,0.30507 -3.128533,0.78187 -0.3872,0.15573 -2.4224,0.65493 -3.128534,1.5648 -3.607466,-1.6064 -8.192,-2.23574 -8.602666,-7.03894 1.6352,-1.7056 2.232533,0.3904 4.692266,0 0.930134,-4.5792 -2.439466,-4.85973 -3.128533,-7.8208 0.324267,-3.3248 1.367467,-5.93173 3.128533,-7.81973 -0.577066,-1.7696 -2.980266,-1.71093 -3.128533,-3.9104 0.388267,-4.56427 1.732267,-8.1728 6.256,-8.6016 v 7.03893 c 2.308267,-2.34773 0.813867,-4.75413 1.563733,-9.38453 -0.682666,-1.1424 -0.6208,-3.02827 -3.128533,-2.3456 -0.459733,-8.66453 -2.113067,-16.13547 -3.9104,-23.46133 2.548267,1.10186 1.613867,5.68533 4.692267,6.256 0.4,-3.26614 -0.436267,-5.2992 -1.563734,-7.03894 -0.126933,-0.9152 -1.426133,-0.6592 -2.346666,-0.7808 -1.285334,-5.7536 -7.189334,-6.88746 -8.6016003,-12.512 C 9.3056,306.1888 9.2906667,304.34987 10.190933,303.42507 9.3546667,299.3088 6.096,297.616 6.2805333,292.4768 6.1312,291.8432 5.4954667,291.69707 5.4986667,290.912 c -0.5408,-1.54347 -2.0864,-2.08427 -3.9104,-2.3456 C 0.90133333,285.10293 -0.176,282.23147 0.02453333,279.18187 0.2368,275.95733 3.3216,273.54453 2.3701333,269.79733 2.3829333,267.46347 4.4032,267.1392 4.7168,265.10613 4.4842667,263.5136 3.1498667,263.02293 2.3701333,261.9776 c 0.912,-4.1856 -0.2698666,-3.8912 -0.7818666,-7.8208 1.5541333,-1.3024 0.9941333,0.0704 3.1285333,0 0.6933333,-4.25707 -2.3050667,-5.68747 -0.7818667,-8.6016 -0.4042666,-2.26987 2.0789334,-2.51093 3.1285334,-3.9104 0.3904,-0.52053 -0.2421334,-1.7024 0.7818666,-1.56373 0.0672,-8.4096 -1.1424,-15.54134 -1.5637333,-23.46027 0.2037333,-2.4032 1.696,-3.51787 2.3456,-5.4752 0.3776,-2.46293 -2.4,-1.7696 -1.5637333,-4.6912 -0.1002667,-1.41867 0.9568,-1.67467 0.7808,-3.14667 z M 20.357333,360.512 c 1.099734,-1.02187 2.810667,-4.13973 0,-4.69227 -0.612266,0.544 -1.7408,4.36267 0,4.69334 z"
       id="path115"
       style="fill:#000000;stroke-width:1.06666672"
       inkscape:connector-curvature="0" /><path
       d="m 19.575467,204.88533 c 0.114133,0.39467 1.490133,1.29387 1.563733,1.5648 0.2528,0.92587 -0.72,0.4704 -0.781867,0.78187 -0.181333,0.90667 0.746667,0.50133 0.781867,0.7808 0.666667,5.37387 -0.494933,14.67413 0,21.11467 -0.06187,-0.2496 -1.557333,-1.48054 -1.563733,-1.56374 -0.0448,-0.62613 0.871466,-0.7776 0.781866,-1.5648 -0.510933,-4.48 -1.202133,-13.87733 -0.781866,-21.09866 z"
       id="path117"
       style="fill:#000000;stroke-width:1.06666672"
       inkscape:connector-curvature="0" /><path
       d="m 80.5728,204.88533 c 1.9904,0.08 1.847467,2.91414 0.781867,3.9104 -1.694934,0.13867 -0.354134,-2.77333 -0.781867,-3.91466 z"
       id="path119"
       style="fill:#000000;stroke-width:1.06666672"
       inkscape:connector-curvature="0" /><path
       d="m 14.8832,208.02133 c 1.5328,-1.8592 0.1696,5.60534 1.563733,7.03894 -3.170133,0.29866 -0.861866,-4.87467 -1.563733,-7.04 z"
       id="path121"
       style="fill:#000000;stroke-width:1.06666672"
       inkscape:connector-curvature="0" /><path
       d="m 54.765867,227.57333 c 1.0496,0.51414 1.457066,1.67147 1.563733,3.12854 -2.352,0.78933 -1.3856,-1.73867 -1.563733,-3.12534 z"
       id="path123"
       style="fill:#000000;stroke-width:1.06666672"
       inkscape:connector-curvature="0" /><path
       d="m 19.575467,230.69867 c 1.2096,-2.3904 0.689066,3.392 0.781866,4.6912 -1.2096,2.38933 -0.689066,-3.392 -0.781866,-4.69334 z"
       id="path125"
       style="fill:#000000;stroke-width:1.06666672"
       inkscape:connector-curvature="0" /><path
       d="m 148.608,246.336 c 0.5632,0.0448 1.12107,-1.65013 0.78187,-2.3456 -0.33067,-0.68053 -2.04374,-0.28267 -2.3456,-0.78187 -0.49814,-0.8224 -0.34667,-1.5936 -0.78187,-2.3456 -0.84267,-1.45493 -1.6064,-2.48533 -2.3456,-5.4752 h -4.69227 c -1.4272,-0.60693 0.46827,-0.84053 1.5648,-0.7808 h 3.12854 c 1.26293,-0.2208 1.34613,0.73814 2.3456,0.7808 2.28906,0.20374 2.4032,-1.76746 4.6912,-1.56373 0.224,1.36213 -2.49707,4.19733 0.78186,3.9104 2.016,-0.1888 -1.07413,-1.34613 0,-3.12853 4.86614,0.97493 2.89707,5.44426 2.3456,9.38453 -0.69546,0.60693 -1.76533,0.84053 -3.12853,0.7808 0.20373,2.28907 -1.76747,2.4032 -1.56373,4.69227 -2.41494,-0.12694 -4.42134,1.84746 -6.256,0 -0.69974,-2.5248 2.5504,-1.09867 3.12853,-2.3456 -0.31787,-1.5072 -3.03253,-0.6176 -2.3456,-3.12854 0.69547,-0.34666 1.3984,-0.688 1.56373,-1.5648 2.37867,-0.032 0.768,3.936 3.136,3.904 z m 0,-5.472 h 1.5648 v -1.5648 h -1.5648 v 1.568 z"
       id="path127"
       style="fill:#000000;stroke-width:1.06666672"
       inkscape:connector-curvature="0" /><path
       d="m 20.357333,242.432 c 1.067734,-2.01067 0.746667,3.872 1.563734,4.69227 0.0864,2.77013 2.5856,-1.66294 2.3456,0.7808 1.954133,3.78133 -0.718934,12.18986 2.346666,14.85866 -0.1664,1.83894 -1.2512,2.79254 -1.563733,4.69227 -1.0048,6.0992 1.490133,13.58187 0.781867,20.3328 v 3.9104 c -1.061334,-0.24213 -0.648534,-1.9584 -0.781867,-3.12853 -2.318933,-9.67147 1.1552,-25.13707 -2.346667,-33.62667 -1.330133,-0.288 -1.4752,0.61013 -1.563733,1.5648 -3.6032,-1.28533 0.6656,-2.61547 0,-5.4752 0.440533,-3.584 -1.3856,-4.88533 -0.781867,-8.61867 z"
       id="path129"
       style="fill:#000000;stroke-width:1.06666672"
       inkscape:connector-curvature="0" /><path
       d="m 15.665067,247.12533 c 1.2096,1.13494 1.6416,3.0496 1.563733,5.47414 -1.2096,-1.14134 -1.6416,-3.05067 -1.563733,-5.472 z"
       id="path131"
       style="fill:#000000;stroke-width:1.06666672"
       inkscape:connector-curvature="0" /><path
       d="m 32.869333,247.904 c 1.620267,-0.2208 0.564267,2.3104 1.563734,3.12853 1.7408,1.424 -1.012267,1.35147 -0.781867,4.69227 -1.783467,-1.088 -0.2912,-5.44 -0.781867,-7.81867 z"
       id="path133"
       style="fill:#000000;stroke-width:1.06666672"
       inkscape:connector-curvature="0" /><path
       d="m 17.2288,254.944 c 1.826133,1.616 1.419733,4 0.781867,6.256 -1.7632,-0.58667 -0.305067,-4.39467 -0.781867,-6.26133 z"
       id="path135"
       style="fill:#000000;stroke-width:1.06666672"
       inkscape:connector-curvature="0" /><path
       d="m 17.2288,264.32 c 1.786667,-1.9872 -0.222933,6.43413 1.563733,7.03893 1.997867,-0.0875 1.552,-2.61866 1.563734,-4.69226 1.4528,1.05813 0.845866,3.32266 0.781866,4.69226 -0.06293,1.3312 -0.580266,3.26614 -0.781866,4.6912 -0.106667,0.75414 0.161066,1.6032 0,2.3456 -0.141867,0.65174 -0.747734,0.768 -0.781867,1.5648 -0.05333,1.2256 0.8992,1.41014 0.781867,2.3456 -0.234667,1.86774 -1.4336,3.84 -1.563734,5.47414 -0.688,2.51306 2.578134,1.072 2.3456,3.12853 -0.372266,7.73227 -0.6176,11.95413 0,19.55093 -3.016533,-3.61706 -1.986133,-8.8768 -2.3456,-13.29493 -0.736,-9.056 -1.886933,-21.44 -1.563733,-32.85333 z"
       id="path137"
       style="fill:#000000;stroke-width:1.06666672"
       inkscape:connector-curvature="0" /><path
       d="m 32.869333,265.888 c 0.2976,-1.48907 0.9952,0.4992 0.781867,1.56373 -0.2976,1.48267 -0.994133,-0.50133 -0.781867,-1.568 z"
       id="path139"
       style="fill:#000000;stroke-width:1.06666672"
       inkscape:connector-curvature="0" /><path
       d="m 33.6512,270.58133 c 1.783467,1.0848 0.2912,5.44427 0.781867,7.81974 -1.0208,-1.03467 -2.413867,-5.70667 -0.781867,-7.81867 z"
       id="path141"
       style="fill:#000000;stroke-width:1.06666672"
       inkscape:connector-curvature="0" /><path
       d="m 12.536533,276.84267 c 1.077334,-2.4896 0.7744,2.76373 0.781867,3.9104 -1.077333,2.47466 -0.773333,-2.77334 -0.781867,-3.91467 z"
       id="path143"
       style="fill:#000000;stroke-width:1.06666672"
       inkscape:connector-curvature="0" /><path
       d="m 38.343467,279.17867 c 0.900266,-2.53014 0.885333,2.10026 0.781866,3.12853 -0.900266,2.53867 -0.884266,-2.09067 -0.781866,-3.12533 z"
       id="path145"
       style="fill:#000000;stroke-width:1.06666672"
       inkscape:connector-curvature="0" /><path
       d="m 12.536533,284.66133 c 1.355734,1.2512 1.6928,3.52107 1.563734,6.256 -2.432,-0.18133 -1.320534,-3.904 -1.563734,-6.26133 z"
       id="path147"
       style="fill:#000000;stroke-width:1.06666672"
       inkscape:connector-curvature="0" /><path
       d="m 12.536533,291.69067 c 0.849067,0.19413 0.530134,1.5552 1.563734,1.5648 -0.336,2.16533 -2.458667,0.0427 -1.563734,-1.568 z"
       id="path149"
       style="fill:#000000;stroke-width:1.06666672"
       inkscape:connector-curvature="0" /><path
       d="M 61.021867,313.58933 H 62.5856 c 3.002667,-0.3968 2.517333,3.08587 3.128533,4.6912 0.120534,0.3168 0.7392,-0.0245 0.781867,0.78187 0.01067,0.208 -0.0768,0.59093 0,0.78187 0.272,0.6816 1.269333,2.2048 0.781867,4.6912 -1.563734,0.2272 -1.725867,-0.8352 -2.3456,-1.56374 -1.076267,-1.264 -2.981334,-3.16906 -3.9104,-5.47413 v -3.904 z"
       id="path151"
       style="fill:#000000;stroke-width:1.06666672"
       inkscape:connector-curvature="0" /><path
       d="m 31.3056,345.65333 c 1.261867,-2.27093 0.727467,3.37067 0.781867,5.47414 0.07147,2.7648 -0.05653,5.9264 0,7.81973 -2.225067,0.44587 -0.8032,-2.42027 -0.781867,-5.47413 0.0192,-2.688 -0.01493,-5.81334 0,-7.81867 z"
       id="path153"
       style="fill:#000000;stroke-width:1.06666672"
       inkscape:connector-curvature="0" /><path
       d="m 35.997867,344.87467 c 0.696533,0.34666 1.399466,0.68693 1.563733,1.56373 -0.644267,1.96267 1.52,6.73387 -1.563733,6.256 v -7.82933 z"
       id="path155"
       style="fill:#000000;stroke-width:1.06666672"
       inkscape:connector-curvature="0" /><path
       d="m 25.831467,372.24533 c 0.2496,1.81334 -0.125867,3.0016 -0.781867,3.9104 -1.1616,-0.92373 -3.4944,-0.67733 -3.128533,-3.12853 0.907733,-0.66133 2.097066,-1.04533 3.9104,-0.78933 z"
       id="path157"
       style="fill:#000000;stroke-width:1.06666672"
       inkscape:connector-curvature="0" /><path
       d="m 208.04267,27.370667 c 2.448,0.362666 3.49013,-0.679467 3.12853,-3.128534 2.49493,0.669867 2.4192,-1.230933 3.90933,-1.563733 0.5152,-2.8736 1.52,-5.258667 1.5648,-8.6016 0.5376,-1.585067 -1.24586,-1.6992 -1.5648,-2.346667 -0.4256,-0.8672 0.5088,-2.3999997 -0.7808,-2.3455997 -0.4128,-2.8554666 3.4336,-3.5114666 1.56374,-5.4741333 -1.33014,-0.288 -1.4752,0.6101333 -1.56374,1.5637333 -0.90986,-0.1269333 -1.392,0.1728 -1.5648,0.7818667 h -3.12853 c -1.30347,1.0432 -1.21493,3.4773333 -2.3456,4.692267 -1.22453,0.6208 -3.25867,1.060266 -4.6912,2.3456 -0.67733,0.606933 -1.6704,0.951466 -1.5648,2.346666 -0.68907,0.222934 -1.68,-0.2784 -2.3456,0 -0.90347,0.3776 -0.8448,1.946667 -1.5648,2.3456 -1.0976,0.610134 -2.87253,0.08 -3.90933,1.563734 -0.51947,0.743466 -0.16747,1.7504 -0.78187,2.346666 -0.2496,0.242134 -1.34827,-0.264533 -1.5648,0 -1.1296,1.380267 -2.32427,2.693334 -4.6912,3.9104 -1.26187,0.647467 -2.4768,2.427734 -4.69227,3.128534 -3.28106,-1.3344 -5.35146,0.768 -7.03786,-1.563734 -0.31254,0.827734 -1.6832,0.2752 -2.3456,0.781867 -0.2624,0.200533 0.23786,1.325867 0,1.563733 -0.47894,0.477867 -3.936,-0.578133 -3.1296,2.3456 -1.8688,0.3488 -3.3344,0.321067 -4.6912,0.781867 -1.24587,0.423467 -1.98187,2.285867 -3.9104,1.5648 -2.38187,1.2672 -3.33014,3.968 -4.6912,6.256 -1.15627,0.0288 -1.48694,0.4128 -2.3456,0.781867 -0.58134,0.248533 -1.61174,0.382933 -2.34667,0.781866 -1.54347,0.839467 -2.51093,3.0592 -4.6912,3.128534 -0.6464,2.210133 1.10187,2.0256 0.78187,3.9104 -2.12374,-0.558934 0.55893,3.687466 -1.5648,3.128533 -0.1312,1.696 2.7744,0.354133 3.9104,0.781867 -0.83094,3.259733 -0.20267,3.4496 0,7.038933 4.18453,0.01387 2.7904,-5.550933 4.6912,-7.8208 2.33066,0.016 1.00266,3.688533 2.34666,4.692267 0.7296,-0.477867 2.88427,-1.819734 2.3456,0.781866 1.04,-0.785066 2.90987,-0.7392 3.12854,-2.3456 1.4752,1.274667 -0.0203,6.192 -2.3456,6.256 0.12693,0.9088 -0.1728,1.390934 -0.78187,1.563734 -0.64427,5.611733 -2.76587,9.746133 -6.256,12.512 0.0245,3.476266 -1.86453,8.113066 -0.78187,10.1664 0.5792,0.3776 1.05174,1.1456 1.5648,1.563733 1.3152,1.076267 1.27787,0.992 3.90934,1.563733 1.648,0.3584 1.6736,0.5408 3.9104,0 0.9536,-0.2304 2.1472,0.06827 3.12853,0 0.064,-0.0043 0.0821,-0.9216 0.78187,-0.781866 0.1824,0.03627 -0.005,0.981333 0.78186,0.781866 0.20374,-0.05227 2.01387,-0.533333 2.3456,-0.781866 0.23574,-0.177067 0.57814,-1.480534 0.7808,-1.563734 0.656,-0.266666 1.712,0.3104 2.34667,0 1.3216,-0.647466 2.5056,-1.610666 3.12853,-2.346666 2.90027,0.554666 3.35574,-1.335467 6.256,-0.781867 2.5056,-1.1776 0.34027,-3.373867 1.56374,-4.692267 2.45546,-0.370133 2.0672,2.104534 3.9104,2.3456 1.3376,-1.908266 -0.784,-5.584 0,-9.384533 1.99573,-0.196267 1.11573,2.3168 1.56373,3.128533 0.88107,1.591467 1.75787,2.081067 3.12853,3.128534 1.06134,-0.242134 0.64854,-1.957334 0.78187,-3.128534 2.40747,0.5824 1.50293,-2.146133 3.9104,-1.563733 v 3.9104 c 0.43733,0.676267 0.97173,2.273067 2.3456,2.3456 0.86293,0.0448 2.7776,3.889067 2.3456,6.256 -0.336,-0.568533 -1.19893,-1.0656 -1.56373,-1.563733 -1.0912,-1.4912 -2.10667,-2.24 -3.12854,1.563733 -1.6064,-0.218667 -1.56053,-2.088533 -2.3456,-3.128533 -1.5072,0.317866 -0.6176,3.031466 -3.12853,2.3456 0.53333,0.650666 1.1104,0.7904 1.56373,1.5648 0.36374,0.621866 -0.21973,1.621333 0.78187,1.563733 v 11.7312 c -3.14133,-0.8224 0.10347,-3.1776 -0.78187,-6.256 -0.2464,-2.983467 -4.4448,-4.9568 -2.3456,-7.8208 -0.34133,-1.160533 -1.00053,0.308267 -2.3456,0 -0.78506,-1.04 -0.7392,-2.909867 -2.34666,-3.128533 -3.2576,2.4064 0.27733,7.5616 2.34666,9.384533 v 4.692267 c 0.53867,2.1024 -1.61706,1.511466 -2.34666,2.3456 0.35946,1.441063 -0.4672,2.821333 0,4.692263 0.0853,0.3424 0.78826,0.96427 0.78186,0.78187 0.0373,1.16587 -0.9472,1.488 -0.78186,2.3456 0.29226,1.51573 1.2928,2.04267 1.5648,3.9104 0.44266,2.42347 3.67786,2.05653 3.9104,4.69227 -4.46614,0.48746 -6.93974,2.9664 -6.256,8.6016 -2.1344,0.5696 -1.57547,-1.55414 -3.12854,-1.56374 -4.7648,1.23094 -5.30666,6.68587 -8.6016,9.38454 h -4.69226 c -2.39894,0.85973 -2.08747,3.7472 -3.12854,5.47413 -0.1888,0.31253 -1.44426,0.51413 -1.56373,0.78187 -0.18027,0.4 0.24,1.20426 0,1.56373 -0.19413,0.28907 -1.4496,0.528 -1.5648,0.78187 -0.52053,1.1552 -0.87147,2.61866 -2.3456,3.9104 -0.496,0.43413 -1.61813,1.52533 -2.3456,1.56373 -2.19947,0.1152 -4.31893,5.42293 -7.03893,6.256 -0.73387,3.22027 -1.34187,6.1472 -2.3456,10.1664 -0.33814,1.35147 -0.93227,4.91093 -1.5648,7.8208 -0.14294,0.65493 -0.672,0.77867 -0.78187,1.56373 -0.5024,3.5968 -0.45973,6.62507 -1.56373,10.1664 -0.3616,1.1584 -0.94507,3.14347 -1.5648,4.69227 -0.36694,0.91733 -0.11947,2.3456 -0.7808,4.69227 -0.0629,0.2208 -0.74347,0.0501 -0.78187,0.78186 -0.0117,0.208 0.0757,0.59094 0,0.78187 -0.31147,0.7776 -0.5088,1.25227 -0.78187,2.3456 -0.14613,0.58347 -0.74666,0.64 -0.78186,0.78187 -0.29227,1.21173 0.256,3.20213 0,4.69226 0.0192,-0.10986 -0.6912,0.42134 -0.7808,0.7808 -0.6592,2.63787 -0.98987,6.44267 -0.78187,10.94934 -0.91627,0.12586 -0.6592,1.42613 -0.78187,2.3456 -1.3536,1.25333 -2.29013,2.92266 -3.12853,4.69226 -0.0779,2.42347 0.95573,3.73547 1.5648,5.47414 -0.002,3.1264 -1.56267,4.69333 -1.5648,7.81973 0.66453,1.16053 1.96907,1.68107 3.9104,1.5648 -0.2496,1.83573 -1.2352,2.93547 -0.78187,5.47413 -2.1024,0.53867 -1.51146,-1.61706 -2.3456,-2.3456 -1.97333,-0.4992 -3.23306,0.6784 -4.69226,0 -0.21867,-0.1024 0.19946,-1.4016 0,-1.5648 -0.7776,-0.6368 -2.41174,-0.8224 -2.3456,-3.12853 2.1344,-0.0704 1.5744,1.30347 3.12853,0 -0.3872,-4.7456 3.0112,-6.71893 0,-10.1664 -3.63947,-0.2496 -1.36747,5.41013 -3.12853,7.03893 -2.4608,0.3904 -3.056,-1.70453 -4.6912,0 -1.6224,0.31467 -1.1616,3.5072 -2.3456,4.69227 -1.34934,1.34933 2.02453,2.98987 1.56373,4.6912 2.45547,0.38613 2.06613,-2.69547 3.9104,-0.78187 -0.0853,1.9456 -1.4656,2.42134 0,3.9104 2.0736,0.24854 -0.7328,-4.3808 2.3456,-3.12853 2.77653,0.39893 2.21973,3.57227 1.56373,5.47413 0.58347,1.76427 4.38614,0.30614 6.256,0.78187 0.73067,-0.5728 1.18507,-1.42187 1.5648,-2.3456 2.3936,0.4736 4.0736,1.6608 6.256,2.3456 -0.45866,1.62667 -1.64373,2.52693 -2.3456,3.9104 -8.28906,-3.70133 -20.76373,5.57867 -22.67946,-4.69227 -1.66294,0.44267 -3.6128,0.19627 -4.69227,0.78187 -1.72907,0.93973 -2.11947,3.2544 -3.12853,4.69227 0.34133,1.16053 1.00053,-0.30934 2.34666,0 0.80427,3.0528 -2.3552,3.81013 -4.69226,4.6912 -0.27627,0.10453 -1.392,-0.2112 -1.56374,0 -0.38186,0.4672 -2.2496,1.24373 -4.69226,0.78186 -2.03307,0.31254 -2.358403,2.33387 -4.69227,2.3456 -0.768,-1.056 -2.0864,-1.56266 -3.128533,-2.3456 -3.268267,0.46187 -5.499734,1.1552 -9.384534,1.56374 -1.2288,0.13013 -1.3504,0.66986 -2.346666,0.78186 -3.131734,0.3552 -5.418667,-0.0139 -8.6016,0.78187 -0.846934,0.2112 -4.234667,0.99307 -6.256,1.56373 -0.263467,0.0747 -1.405867,-0.19306 -1.563734,0 -0.817066,0.99947 -1.592533,0.40854 -3.128533,0.78187 -5.786667,1.40907 -9.8592,4.26133 -16.4224,2.3456 0.459733,1.1168 0.218667,2.02773 0.781867,3.12853 0.119466,0.2336 1.552,1.46774 1.563733,1.5648 0.0704,0.57067 -1.182933,1.312 -0.781867,2.3456 0.439467,1.13174 0.882134,2.03734 1.563734,3.12854 0.2688,0.42986 0.733866,-0.1184 0.781866,0.78186 0.106667,2.0256 2.986667,2.94507 4.692267,4.6912 1.4112,1.44534 1.357867,4.49174 3.9104,3.9104 1.348267,5.95094 2.88,11.71734 7.037867,14.85867 -0.606934,0.69547 -0.840534,1.76533 -0.781867,3.12853 1.341867,1.78667 2.305067,3.95094 3.9104,5.47414 v 8.6016 c -3.9072,-0.52374 -2.669867,-6.19307 -4.692267,-8.6016 -0.349866,-2.256 -3.364266,-1.84747 -3.9104,-3.90934 -0.154666,-2.24 -0.09707,-4.2688 2.3456,-3.9104 -0.6784,-2.45013 -1.937066,-4.31893 -3.9104,-5.47413 -1.755733,1.80693 -0.6272,7.36427 0,9.38453 -1.733333,0.42987 -1.1136,-1.49333 -2.346666,-1.5648 -0.628267,0.41387 -1.269334,0.816 -2.3456,0.78187 -0.01813,1.84213 1.3472,2.30187 0.781866,4.6912 2.974934,1.14987 0.1536,-3.49547 3.128534,-2.3456 0.9632,2.2112 0.9632,4.82667 0,7.03893 -1.696,0.1312 -0.354134,-2.7744 -0.781867,-3.9104 -2.087467,0.35627 -3.902933,3.04427 -2.346667,4.69227 0.5152,2.31467 2.439467,-1.42933 3.9104,0.7808 -1.6224,1.60853 0.737067,10.13867 -3.128533,7.03893 0.05227,2.29227 1.787733,2.90454 3.128533,3.9104 2.530134,0.96534 0.597334,-2.5312 3.128534,-1.5648 -0.446934,2.17387 1.265066,3.3312 1.563733,5.47414 0.494933,3.54453 -1.0432,7.0528 0,10.1664 -1.6064,0.21866 -1.560533,2.08853 -2.346667,3.12853 -1.816533,0.8736 -2.0928,-0.16747 -3.9104,1.5648 0.328534,4.36267 4.484267,4.90027 4.692267,9.38453 -5.381333,-0.87466 -6.736,-5.77706 -6.256,-12.512 -1.1712,-1.17546 -1.399467,-3.29386 -3.128533,-3.9104 -2.0384,2.3648 -4.304,11.71307 0,13.29494 -0.554667,2.90026 1.335466,3.35573 0.781866,6.256 1.838934,-0.2464 0.464,-3.70774 3.128534,-3.12854 -0.536534,5.45814 -4.1152,7.8752 -6.256,11.73014 -1.326934,-0.5088 -0.488534,-1.7984 0.781866,-1.5648 -0.4288,-2.8448 2.5792,-6.74027 -0.781866,-7.81974 -1.1264,0.17707 -0.272,2.33387 -1.563734,2.3456 0.471467,4.90347 -0.590933,8.272 -0.781866,12.512 -3.890134,0.0565 -0.512,-2.29973 -2.346667,-3.9104 -1.626667,0.85334 -0.538667,3.07627 -0.781867,4.69227 -0.0064,0.0437 -0.750933,0.18667 -0.781866,0.7808 -0.0544,1.04107 0.04267,2.08853 0,3.12853 h -3.128534 c -0.2976,3.66614 1.373867,4.448 -0.781866,6.256 -2.926934,-1.78346 -3.4464,-8.30293 -2.346667,-11.73013 -0.242133,-1.06133 -1.957333,-0.64853 -3.128533,-0.78187 -0.373334,-1.33013 0.658133,-2.33706 0.781866,-3.90933 0.289067,-3.66933 -1.095466,-8.34347 2.3456,-8.6016 0.314667,3.70347 -1.396266,5.38133 -0.781866,9.38347 0.514133,1.0496 1.671466,1.45706 3.128533,1.5648 0.0075,2.0768 -0.295467,4.4672 0.781867,5.47413 2.152533,-0.89707 -0.0416,-3.10933 0,-4.6912 -0.0032,0.1504 0.7584,-0.336 0.781866,-0.78187 0.05653,-1.06666 -0.04053,-5.25226 0,-7.81973 2.0448,-0.2208 3.3632,0.28587 3.128534,2.3456 2.123733,0.55893 -0.558934,-3.68747 1.563733,-3.12853 0.32,-1.8848 -1.428267,-1.70027 -0.781867,-3.9104 0.849067,-0.19414 0.5312,-1.5552 1.563734,-1.56374 0.346666,1.136 0.686933,-0.08 1.563733,0 -0.468267,-2.34773 -0.794667,-4.608 -0.781867,-7.03893 0,0.0245 2.401067,-7.76427 0.781867,-9.38453 -1.019733,-1.01974 0.2144,-0.12267 0,-3.12854 -0.0896,-1.2608 -0.5952,-1.3312 -0.781867,-2.3456 -0.283733,-1.53813 0.176,-3.136 0,-4.69226 -0.213333,-1.88267 -1.2576,-6.0352 -0.781866,-10.1664 0.1952,-1.68854 1.1744,-3.05494 0.781866,-6.25494 -0.317866,-2.59413 -0.756266,-2.10666 0,-5.4752 0.514134,-2.29013 1.6096,-6.3584 0,-10.16533 3.290667,-1.2064 0.123734,4.04587 2.3456,3.90933 2.797867,-0.33066 2.200534,-4.05546 2.346667,-7.03786 1.038933,-0.78507 2.909867,-0.7392 3.128533,-2.34667 -1.262933,-1.08373 -2.4768,-2.21547 -3.9104,-3.12853 -4.056533,1.0496 1.959467,7.55733 -3.128533,7.8208 -0.2944,-4.04587 -3.684267,-9.55094 0.781867,-11.73014 -0.456534,-1.81866 -2.123734,-0.55573 -3.128534,-1.5648 -0.896,-0.90026 0.253867,-3.984 -3.128533,-3.12853 v -5.47413 c -0.149333,-0.6336 -0.784,-0.77867 -0.781867,-1.5648 -0.529066,-0.864 -2.5984,-4.05654 -3.128533,-2.3456 -1.1264,-0.17707 -0.272,-2.33387 -1.563733,-2.3456 -0.0288,-4.92374 0.4992,-10.40427 -1.563734,-13.29494 0.06613,-2.80106 1.217067,-4.5184 1.563734,-7.03786 -0.4512,-2.5792 -2.9536,-1.12214 -4.6912,-0.78187 0.859733,-1.95413 -2.250667,-2.1024 -2.346667,-3.9104 -0.05227,-0.99627 -2.276267,-2.58347 -2.3456,-3.9104 -0.01813,-0.33493 -0.2944,-2.8832 -1.563733,-3.12853 -1.749334,0.33706 -0.3168,3.85386 -0.781867,5.4752 0.461867,1.6224 1.505067,2.6656 3.128533,3.12853 -0.01813,1.84213 1.3472,2.30187 0.781867,4.6912 -2.4096,-0.71893 -0.9376,-5.3184 -5.474133,-3.9104 0.596266,-4.24427 -0.964267,-6.33387 -0.781867,-10.16533 1.0496,-0.51414 1.456,-1.67147 1.563733,-3.12854 1.262934,-0.2208 1.346134,0.73814 2.3456,0.7808 0.352,-1.50826 0.840534,-2.88106 1.563734,-4.6912 0.229333,-0.57493 0.663466,-0.51733 0.781866,-0.78186 0.494934,-1.10294 0.216534,-2.02347 0.781867,-3.12854 0.200533,-0.3904 1.458133,-1.25546 1.563733,-1.56373 0.314667,-0.91627 0.485334,-2.7488 0.781867,-3.9104 0.688,-2.69227 1.1808,-6.00107 2.3456,-9.38453 0.09813,-0.2848 0.740267,0.001 0.781867,-0.78187 0.01067,-0.20693 -0.07573,-0.59093 0,-0.7808 0.816,-2.0384 2.6624,-6.51733 3.9104,-9.38453 3.441066,1.37386 1.1936,5.0688 -1.563734,5.47413 -1.604266,6.42667 -5.482666,14.03627 -3.128533,21.89653 0.955733,1.1296 2.984533,1.18507 3.9104,2.3456 2.161067,-1.84533 1.3408,-4.93546 0.781867,-7.81973 -1.838934,0.24533 -0.464,3.70667 -3.128534,3.12853 -0.117333,-3.99893 1.595734,-7.16266 2.3456,-10.1664 0.3712,-1.48373 -0.03093,-2.01386 0.781867,-3.9104 0.189867,-0.44266 1.429333,-1.21386 1.563733,-1.56373 0.571734,-1.49547 -1.179733,-5.10293 2.3456,-4.69227 1.5552,2.35414 0.135467,7.68427 3.128534,8.6016 2,-2.09066 0.2656,-7.3472 0,-10.16533 2.6464,0.29973 1.230933,-3.46133 4.692266,-2.34667 0.106667,5.0592 -1.333333,8.5728 -1.563733,13.29494 2.237867,0.90773 1.805867,-2.41067 2.346667,-3.9104 0.833066,-2.3136 1.9872,-3.39734 1.563733,-7.03787 -0.2272,-1.952 -2.16,-2.8256 -1.563733,-4.69227 0.916266,-0.12586 0.6592,-1.42506 0.781866,-2.3456 1.8912,0.976 2.530134,3.20534 3.128534,5.47414 3.166933,-0.84374 -0.238934,-3.72374 0.781866,-7.03787 2,-0.0341 0.9536,0.58133 0.781867,1.56373 1.050667,1.5552 1.490133,3.72267 2.346667,5.47414 1.7632,-0.5824 0.306133,-4.38614 0.781866,-6.256 0.916267,-0.12587 0.660267,-1.42507 0.781867,-2.3456 1.061333,0.24213 0.648533,1.95733 0.781867,3.12853 1.061333,0.24213 0.648533,1.95733 0.781866,3.12853 1.6064,-0.21866 1.560534,-2.08853 2.3456,-3.12853 -0.4608,-2.40747 -0.200533,-5.53493 -3.128533,-5.47413 0.135467,-4.8608 -0.8768,-6.04694 0,-10.1664 2.8896,0.75946 2.392533,4.90666 3.128533,7.8208 0.125867,0.91626 1.426134,0.6592 2.346667,0.78186 0.157867,4.0512 -2.690133,9.8912 0,11.73014 -2.0992,2.07146 -4.600533,3.74186 -5.474133,7.03893 -1.592534,-1.60533 -4.7104,-0.74133 -4.692267,1.5648 -2.178133,-1.78667 1.066667,-4.14187 -0.781867,-6.256 -1.790933,1.78347 -0.314666,4.0896 -0.781866,6.256 0.0864,-0.39893 -0.814934,0.83093 -0.781867,0.7808 -0.504533,0.75627 -0.503467,1.23307 -0.781867,2.34667 -0.199466,0.7968 -0.878933,3.37066 -1.563733,5.47413 -1.802667,0.24 -0.868267,-2.2592 -2.3456,-2.3456 -3.3408,2.14613 0.7936,6.86827 0.781867,10.94827 -0.0043,1.71733 -0.606934,1.9584 -0.781867,3.12853 -0.141867,0.94827 0.311467,2.22827 0,3.12853 -0.0992,0.28694 -0.740267,-0.002 -0.781867,0.78187 -0.06827,1.31093 -0.336,1.48907 -1.563733,1.56373 -0.714667,-3.62133 1.834667,-5.64373 -0.781867,-7.03893 -1.323733,1.51147 -1.682133,4.58667 -1.563733,8.60267 -0.916267,0.12586 -0.660267,1.42506 -0.781867,2.3456 -0.695466,0.60693 -1.765333,0.84053 -3.128533,0.78186 0.218667,2.2816 -0.187733,2.68907 -1.563733,1.56374 0.261333,1.824 0.801066,3.3696 2.346666,3.9104 2.4928,0.66773 2.968534,-0.6816 3.9104,-1.5648 1.998934,-0.53227 1.053867,1.33866 1.563734,2.34666 0.4704,0.928 1.229866,1.30454 1.563733,2.3456 0.520533,-0.6784 2.288,-0.4576 2.346667,-1.5648 0.0896,-1.71093 1.905066,0.3008 2.3456,0 1.0912,-0.74453 0.957866,-1.98293 2.346666,-3.12853 0.853334,-0.7904 -2.373333,-3.39093 -0.781866,-4.6912 0.0448,-0.0373 0.7808,0.0341 0.781866,0 0.02667,-0.54507 -1.032533,-1.8592 0,-3.9104 0.282667,-0.56107 2.544,-1.088 1.563734,-3.9104 1.861333,1.78987 2.266666,5.0336 2.3456,8.60267 3.834666,-0.8576 1.8752,-7.50934 2.346666,-11.7312 1.232,0.35626 1.8912,1.42506 2.3456,3.12853 0.4416,1.65333 -1.000533,4.06613 0.781867,4.69227 2.352,0.78826 1.3856,-1.74294 1.563733,-3.12854 -0.583466,-3.85706 -0.583466,-4.74453 0,-8.6016 3.086934,1.0016 1.892267,-2.27946 3.9104,-2.3456 -0.619733,-6.9408 -0.270933,-14.84906 -2.3456,-20.3328 -0.760533,-1.87093 1.7888,-2.11093 2.3456,-3.12853 0.420267,-0.76693 0.5024,-2.9568 0.781867,-3.9104 0.06827,-0.2336 0.7424,-0.0395 0.781867,-0.78187 0.0416,-0.77973 -0.03307,-1.56586 0,-2.3456 -3.240534,0.14827 -1.166934,5.6096 -4.692267,5.47414 0.114133,-2.90134 1.272533,-5.05067 1.563733,-7.8208 0.06933,-0.66454 -0.235733,-1.72587 0,-2.3456 0.170667,-0.44907 1.301334,-0.43094 1.563734,-0.78187 0.208,-0.27733 -0.2592,-1.35147 0,-1.56373 0.7744,-0.6336 0.250666,-2.05867 0.781866,-3.9104 -0.2304,-1.59467 -2.116266,-1.53387 -2.346666,-3.12854 -1.1264,0.4384 -1.908267,1.22027 -2.3456,2.3456 -1.749334,-0.336 -0.3168,-3.85386 -0.781867,-5.47413 1.061333,0.24213 0.648533,1.9584 0.781867,3.12853 2.1984,0.11307 2.254933,-1.91466 2.3456,-3.9104 1.077333,-2.4896 0.7744,2.76267 0.781866,3.9104 0.187734,1.376 1.345067,1.7824 3.127467,1.56374 0.526933,3.91466 -0.724267,6.05333 -0.781867,9.38453 -0.418133,1.91787 2.5376,2.2528 1.563734,5.47413 -0.128,0.42454 -0.785067,0.79894 -0.781867,0.78187 -0.1728,0.97173 0.2944,2.18987 0,3.12853 -0.08,0.25494 -0.741333,0.0224 -0.781867,0.78187 -0.07893,1.4912 -2.013866,3.63093 -1.563733,7.03893 0.301867,2.28374 1.3248,6.20267 0.781867,10.94827 0.968533,3.4624 6.357333,2.5056 5.474133,7.8208 h 3.9104 c -0.708267,-3.0656 -0.9536,-4.87787 0.781867,-7.03893 2.413866,0.95466 1.658666,3.12213 1.563733,5.47413 -0.04267,1.0496 -3.392,3.08907 0,3.9104 1.1776,-0.4704 0.769067,-2.71787 1.563733,-3.9104 0.522667,-0.78293 1.304534,-1.38347 1.563734,-2.3456 0.7712,-2.85333 -0.679467,-6.5056 1.563733,-8.6016 3.454933,-0.34667 0.487467,2.59627 0.781867,3.9104 0.56,2.49173 2.8384,4.0064 3.9104,6.256 1.1264,-0.17707 0.272,-2.33387 1.563733,-2.34667 -0.05333,-2.29226 -1.787733,-2.90453 -3.128533,-3.90933 0.171733,-2.5184 -1.383467,-3.30987 -0.781867,-6.256 -0.02133,-0.76053 -0.9568,-0.60693 -1.563733,-0.78187 -2.3872,-2.70613 2.295466,-0.15466 3.128533,0.78187 1.3792,-0.7072 2.4224,-1.7504 3.128533,-3.12853 -1.605333,-5.95414 -2.967466,-12.15254 -3.9104,-18.76907 -0.461866,-1.6224 -1.505066,-2.6656 -3.128533,-3.12747 -0.0704,-2.13333 1.3024,-1.5744 0,-3.12853 -0.4704,-0.8928 -0.930133,-1.99253 -2.346667,-2.34667 -0.293333,-0.0736 -1.365333,0.20267 -1.563733,0 -0.522667,-0.53333 -0.1984,-2.736 -0.781867,-3.12853 -0.528,-0.3552 -1.754666,0.25387 -2.346666,0 -0.3424,-0.1472 -1.287467,-1.82613 -3.127467,-1.56373 -1.783467,1.0848 -0.2912,5.4432 -0.781867,7.8208 v 3.9104 c -1.061333,-0.24214 -0.648533,-1.95734 -0.781866,-3.12854 -1.52,-3.40053 1.726933,-10.24426 -1.563734,-13.29386 -1.813333,0.2496 -3.002666,-0.12587 -3.9104,-0.78187 -0.919466,-0.32747 -0.407466,1.392 -0.781866,1.56373 -0.8128,0.37227 -2.749867,-2.19733 -3.128534,0.78187 -2.225066,-1.424 -3.002666,-4.29653 -4.692266,-6.256 -2.2016,0.7904 0.215466,3.3216 0,4.69227 -2.459734,0.896 -1.9008,-1.22774 -3.128534,-1.56374 -1.741866,0.8 1.021867,3.59574 0,6.256 -1.0496,0.51414 -1.457066,1.67147 -1.563733,3.12854 -2.334933,0.37653 -1.8624,-2.18454 -2.346667,-3.12854 -0.1856,-0.36053 -1.4816,-1.2928 -1.563733,-1.56373 -0.209067,-0.6912 0.276267,-1.68213 0,-2.3456 -0.868267,-2.0928 -3.0176,-3.76427 -2.3456,-6.256 2.061867,0.54507 1.653333,3.55947 3.9104,3.9104 0.2656,-2.42453 -1.810133,-3.73547 0,-5.47413 2.0096,0.0757 1.117867,3.0528 3.128533,3.12853 0.269867,-3.3984 -1.8912,-4.3648 -2.3456,-7.03893 1.0272,0.27626 1.229867,1.37706 2.3456,1.56373 1.799467,-1.85067 0.280534,-7.01867 0.781867,-10.1664 2.407467,0.5824 1.502933,-2.1472 3.9104,-1.56373 -0.132267,1.95733 1.201067,2.448 2.346667,3.12853 v 6.256 c 0.688,0.84053 0.6464,0.35733 2.3456,0.78187 0.952533,0.23786 4.562133,0.46826 4.692266,-1.56374 1.7504,-0.46826 0.7648,2.26347 2.346667,2.34667 1.005867,0.0523 0.9824,1.28853 1.563733,1.56373 0.474667,0.22507 1.984,-0.35626 2.346667,0 0.648533,0.63894 -0.205867,2.82347 0.781867,3.12854 1.402666,0.0992 1.649066,-0.9568 3.128533,-0.78187 -2.045867,4.48533 2.065067,4.47467 1.563733,9.38453 6.029867,-1.74826 0.340267,-8.33493 2.346667,-12.512 3.540267,0.10987 1.995733,5.30347 2.3456,8.60267 0.788267,1.81867 2.692267,2.5216 5.474133,2.3456 0.983467,-0.19307 0.788267,-1.5552 0,-1.56373 -0.2208,-1.26294 0.7392,-1.34614 0.781867,-2.3456 2.464,-0.3776 0.5856,3.58506 2.346667,3.9104 2.992003,0.67413 1.443203,-1.6736 1.563733,-3.12854 0.128,-1.54453 0.78933,-3.33973 0,-3.9104 -0.507733,-1.65546 1.33013,-1.84 1.56373,-3.12853 0.58027,-3.19253 -1.48906,-6.81707 -0.78186,-10.94827 3.64053,-0.27306 2.14826,3.67254 0.78186,4.69227 1.1712,1.17547 1.39947,3.2928 3.12854,3.9104 2.55466,-0.94187 -0.4416,-3.6704 0,-5.47413 0.14613,-0.59734 1.54773,-0.4992 1.56373,-1.56374 0.0192,-1.26293 -1.46667,-2.43626 -1.56373,-3.9104 0.0149,0.2208 0.7392,-1.2064 0.78186,-1.56373 0.22187,-1.85067 0.0683,-4.39147 0,-6.256 -0.0469,-1.27147 -0.61333,-1.32587 -0.78186,-2.3456 -0.56854,-3.44533 0.36053,-6.12053 0.78186,-9.38453 1.6928,1.5488 0.4736,4.66133 0.78187,7.8208 0.11947,1.22453 0.69653,1.3568 0.78187,2.34666 0.28906,3.34827 0.1408,6.42454 0.78186,9.38347 0.22614,1.0464 -0.3552,2.26347 0.78187,2.34667 2.016,-0.1888 -1.07413,-1.34614 0,-3.12854 3.76213,0.0725 1.64587,5.81974 5.47413,6.256 0.99627,-0.17706 1.024,-2.33386 0,-2.34666 0.0672,-1.1104 0.12907,-2.2144 -0.78186,-2.3456 0.672,-0.6304 0.46506,-2.14187 1.56373,-2.34667 0.79467,-0.50773 0.80853,-1.7984 2.3456,-1.56373 0.53867,-2.1024 -1.61707,-1.51147 -2.3456,-2.3456 0.0672,-1.1104 0.12907,-2.2144 -0.78187,-2.34667 -0.5312,-2.4224 0.35414,-5.15947 0.78187,-7.03787 0.27093,-1.19146 -0.53227,-3.01866 0.78187,-3.12853 0.5824,-2.40747 -2.1472,-1.50293 -1.56374,-3.9104 1.55734,-3.9296 -0.18986,-5.71413 -0.78186,-9.38453 -0.12587,-0.91627 -1.42507,-0.66027 -2.3456,-0.78187 -0.896,-3.24267 1.6448,-3.0464 1.56373,-5.47413 -0.4192,-4.27307 -1.81867,-7.56587 -2.34667,-11.731203 2.64427,1.005866 3.99787,3.301333 7.03787,3.9104 v 6.256003 c 0.12587,0.91626 1.42613,0.6592 2.34667,0.78186 -0.128,0.90987 0.17173,1.392 0.7808,1.56374 v 3.12853 c 0.53866,2.10347 -1.61707,1.51147 -2.3456,2.34667 -0.0629,3.0656 -1.37814,4.87786 -2.3456,7.03786 2.52373,0.69974 1.09866,-2.5504 2.3456,-3.12853 1.4464,0.11733 0.48,2.64853 1.5648,3.12853 1.5744,-1.04533 2.55573,-5.0336 4.6912,-3.12853 -0.28694,2.32 -1.35574,3.85813 -3.12854,4.69227 0.006,3.23626 -1.97973,7.42186 0,10.1664 1.3984,-1.04427 1.2192,-5.72694 3.9104,-3.12854 0.17814,-1.3856 -0.78826,-3.9168 1.56374,-3.12853 0.13866,8.464 0.8896,16.31467 1.5648,24.2432 h -3.9104 c -0.0373,3.35147 -0.84267,5.93493 -2.3456,7.8208 0.01,1.55413 2.13333,0.99413 1.56373,3.12853 2.04587,0.2208 3.3632,-0.28586 3.12853,-2.34666 1.84747,0.69333 -1.79413,4.36693 2.3456,3.9104 2.7488,-2.84907 0.0757,-6.96107 1.5648,-10.1664 1.8432,0.0181 2.30187,-1.3472 4.6912,-0.78187 2.176,-0.9536 1.4528,-4.8032 1.5648,-7.8208 3.16694,0.84373 -0.24,3.72373 0.78187,7.03787 3.9008,-0.11627 0.47893,-3.50614 3.12853,-5.47414 1.55307,-1.3024 0.99414,0.0704 3.12854,0 0.14613,-6.496 -1.69494,-11.4528 2.3456,-14.85866 -0.3328,-2.79467 -4.1536,-2.10347 -3.12854,-6.256 -1.70986,0.1152 -1.67893,1.97013 -1.5648,3.9104 -3.74933,-0.88214 -2.752,2.9824 -4.6912,3.9104 -0.64533,2.21013 1.10187,2.0256 0.78187,3.9104 -0.39253,1.09973 -2.1664,0.18986 -3.12853,0.78186 -0.38507,0.23787 -0.0949,2.31254 -1.5648,1.56374 -2.2496,-2.64214 0.9792,-4.81174 3.12853,-5.47414 -0.12693,-0.90986 0.1728,-1.39093 0.78187,-1.56373 v -5.47413 c 2.512,0.688 1.072,-2.57814 3.12853,-2.34667 -0.0939,-2.2528 0.42667,-5.11893 -0.78187,-6.256 -1.35786,-0.26027 -1.70773,1.17013 -3.12853,0.78187 -0.0981,-0.0267 -0.5216,-2.23147 -0.78187,-2.34667 -1.2224,-0.5376 -1.52106,2.9504 -3.12853,0.78187 -1.0688,-1.00054 -1.0688,-3.6928 0,-4.69227 -3.28853,1.87627 -3.28427,-1.55947 -6.25493,0 -0.37227,-2.97813 0.33173,-4.88213 2.3456,-5.47413 -0.0672,-1.1104 -0.12907,-2.2144 0.7808,-2.3456 0.16,-2.446937 -0.52694,-5.740803 0.78186,-7.038937 -0.6272,-2.672 1.1648,-4.465066 0.78187,-0.781866 V 99.3152 c 0.97067,2.2336 2.27413,-3.3984 3.9104,-0.781867 -0.21973,2.647467 -1.2448,4.490667 -0.78187,7.820797 1.2096,-1.136 1.6416,-3.05066 1.56374,-5.47413 3.0048,0.9056 0.9696,6.8512 1.5648,10.1664 2.7712,-0.0971 1.29706,-4.43733 3.12853,-5.47413 3.17653,1.51573 0.85547,8.53013 1.56373,12.512 2.9664,-0.2016 2.5888,-4.7968 3.12854,-7.8208 3.30346,2.4512 -0.35414,7.4848 0.78186,12.512 0.944,1.14133 3.41867,0.752 2.3456,3.9104 0.9344,2.05653 2.6784,-3.68534 4.69227,-0.78187 -0.30293,3.84427 -5.6704,5.9936 -3.12853,10.1664 4.35413,0.44373 3.6416,-7.46667 7.03893,-5.47413 -1.58507,-2.34987 0.16107,-6.7744 0.7808,-9.38454 1.09013,-0.26773 1.13707,2.48854 0.78187,3.9104 -0.0885,0.3552 -0.78934,0.94507 -0.78187,0.78187 -0.0523,1.16053 1.4752,2.60053 0,4.69227 2.048,-0.9696 2.4096,-3.568 3.12853,-5.47414 0.7712,-2.0416 1.84214,-3.74933 1.5648,-6.256 -0.016,-2.33066 -3.6896,-1.00266 -4.69226,-2.34666 0.62933,-4.8 -1.61174,-6.7296 -2.3456,-10.1664 -2.05654,-0.23147 -0.61547,3.0336 -3.12854,2.3456 0.0992,-1.40267 -0.9568,-1.64907 -0.78186,-3.12854 -0.304,-0.95573 -1.77707,-0.8864 -2.3456,-1.56373 -0.55147,-0.656 -0.0736,-3.1264 -1.56374,-3.12853 -0.46293,-3.32907 0.56214,-5.17227 0.7808,-7.820803 2.16,0.445866 4.38507,0.827733 3.9104,3.9104 1.6512,-1.3792 2.31147,-1.7632 4.69227,-0.781867 v -3.128533 c -1.35573,-1.3344 -2.05013,0.123733 -4.69227,-0.781867 -1.01866,-0.5184 -0.29653,-2 -0.78186,-3.128533 -0.6272,-1.458134 -2.89494,-2.138667 -2.3456,-4.692267 -1.27147,-0.890667 -2.2336,1.450667 -3.12854,2.346667 -0.93226,0.932266 -0.2688,1.594666 -0.78186,3.127466 -0.0448,0.1344 -1.53387,-0.1312 -1.56374,0 -0.59093,2.610134 0.0939,6.071467 1.56374,7.8208 -0.656,0.907734 -1.03147,2.097067 -0.7808,3.910397 0.23893,1.80267 -2.2592,0.86827 -2.34667,2.3456 -0.97707,-0.112 -0.5792,-1.44426 -0.7808,-2.3456 -0.23467,-1.0432 -0.74453,-1.49973 -0.78187,-2.346663 -0.0565,-1.264 0.59947,-1.348267 0.78187,-2.3456 0.31787,-1.7312 -0.208,-4.037334 0,-5.474134 -0.0224,0.154667 0.69973,-0.453333 0.7808,-0.781866 0.12267,-0.490667 -0.0939,-1.066667 0,-1.563734 1.57013,-1.242666 4.12373,-4.088533 2.34667,-6.256 -0.79574,0.5088 -0.8096,1.7984 -2.34667,1.563734 -0.0971,-3.2256 1.35893,-4.897067 0.78187,-8.6016 1.264,0.2208 1.3472,-0.7392 2.3456,-0.781867 0.24,-4.973867 0.8896,-9.538133 1.5648,-14.0768 -4.34134,-0.528 -2.65174,5.150933 -3.9104,7.038933 -0.1888,0.283734 -0.50774,2.1216 -0.78187,2.3456 -0.63893,0.522667 -0.53973,0.597334 -0.7808,1.563734 -0.25813,1.031466 -1.39093,1.226666 -1.5648,2.346666 -1.66933,-0.488533 -0.7328,-4.813866 0,-5.474133 1.54453,-0.5408 2.08533,-2.0864 2.3456,-3.9104 -1.17013,-3.082667 -3.264,3.339733 -3.90933,0.781867 0.52266,-3.646934 3.6512,-4.690134 3.12853,-9.384534 -2.12907,-0.615466 -2.15893,2.253867 -3.9104,2.346667 -0.0853,0.0043 -1.47947,0.680533 -1.5648,0.781867 -0.0907,0.1088 1.0816,1.618133 0.78187,2.346666 -0.0843,0.2048 -1.4112,-0.1856 -1.56374,0 -0.24746,0.302934 -1.47626,1.371734 -1.5648,1.563734 -0.13013,0.282666 0.99414,1.476266 0.78187,2.3456 -0.20587,0.845866 -1.5456,0.533333 -1.5648,1.563733 -2.61227,-0.702933 -0.82133,-1.888 0.78187,-2.3456 -0.7872,-1.818667 -2.6912,-2.5216 -5.47414,-2.346667 -2.0064,0.08 -1.2576,2.914134 -2.3456,3.9104 -1.9488,-0.658133 -4.18986,-1.024 -7.03893,-0.781866 -0.58347,3.1904 5.06453,0.149333 3.9104,3.9104 -3.1936,-0.0192 -5.44107,0.349866 -3.9104,3.128533 -2.7232,1.1872 -4.85013,2.9696 -8.6016,3.128533 0.9088,-4.8192 -4.2848,-3.536 -4.69227,-7.038933 1.91894,-2.6656 5.232,-0.906667 8.6016,-0.781867 1.90187,-0.64 -1.54986,-4.122666 0.78187,-5.474133 1.7888,0.818133 4.7168,0.496 6.256,1.563733 2.2752,-0.679466 0.88,-1.1712 0.78187,-3.128533 1.85066,-0.7552 3.84213,-1.371733 3.12853,-4.692267 3.31947,-0.192 4.21013,2.045867 7.81973,1.563734 -1.0048,2.448 -1.61706,0.4032 -3.90933,1.563733 0.5408,2.4512 2.08533,1.019733 3.90933,0.781867 2.44907,-1.005867 0.4032,-1.617067 1.5648,-3.9104 0.7648,-0.602667 1.57654,-0.945067 2.3456,-1.563734 0.75734,-0.608 1.26294,0.3488 1.5648,-0.781866 0.12907,-0.487467 -0.10026,-1.0688 0,-1.563734 -0.0555,-1.909333 -1.9968,0.2176 -3.12853,0 0.0736,0.01387 -0.39467,-0.685866 -0.78187,-0.781866 -1.0144,-0.253867 -2.61226,0.0384 -2.3456,-2.3456 1.87307,0.472533 3.568,1.124266 6.256,0.781866 2.68907,-1.4816 3.9776,-4.3648 5.47414,-7.037866 1.39306,-0.432 3.248,-0.402134 3.9104,-1.563734 -1.81654,-2.6048 -4.09387,0.423467 -6.256,0.781867 -5.54027,0.919467 -11.7824,1.131733 -16.4224,-0.781867 0.28693,2.32 1.35573,3.858134 3.12853,4.692267 -0.0853,1.9456 -1.4656,2.421333 0,3.9104 0.6624,1.162667 2.51733,1.131733 3.9104,1.563733 1.80267,-0.238933 0.86827,2.2592 2.3456,2.346667 -0.5824,1.7632 -4.38613,0.306133 -6.256,0.781867 -0.76907,-1.037867 -1.13067,-2.136534 -2.3456,-3.128534 -0.9344,-0.760533 -2.44587,-0.6816 -3.12853,-1.563733 -0.21334,-0.2752 0.26026,-1.3504 0,-1.563733 -0.272,-0.221867 -1.3792,-0.512 -1.5648,-0.781867 -0.19414,-0.282667 0.25493,-1.355733 0,-1.563733 -0.0789,-0.06507 -0.74987,0.08427 -0.7808,0 -0.53227,-1.389867 -0.16534,-3.586134 -0.78187,-5.474134 1.3376,0.03413 2.02453,-0.581333 2.3456,-1.5648 2.1664,-0.101333 4.66667,-1.307733 8.6016,-0.781866 1.33333,0.178133 1.70773,0.849066 3.12853,0.781866 2.42987,-0.114133 2.47467,-0.466133 5.47414,-0.781866 1.70773,-0.1792 4.21013,-1.352534 7.8208,-0.781867 -0.1472,-0.02347 0.3616,1.307733 0.78186,0.781867 1.4048,-1.7568 0.79147,0.757333 3.12854,0 3.07413,-0.997334 4.2848,-3.3632 5.47413,-6.256 6.84267,-0.155734 12.512,-5.988267 19.54987,-7.8208 2.2624,-0.5888 5.4688,0.05227 7.8208,-0.781867 3.83466,-1.36 8.00213,-5.2352 10.1664,-9.384533 3.2096,-0.434134 5.52106,-2.3552 7.81973,-3.9104 0.54827,-0.3701337 1.06347,-1.197867 1.5648,-1.5637337 1.08053,-0.7904 3.26933,-1.7205333 4.6912,-3.1285333 0.0128,-2.8554667 2.22293,-3.5114667 3.12853,-5.47413333 3.51574,0.9152 6.9824,1.88053333 9.38454,3.91040003 -0.49814,2.9792 -1.13814,5.7653333 -0.78187,8.6026663 0.34133,2.714667 0.94187,4.056534 0,7.8208 -0.1344,0.5376 -0.7648,0.6976 -0.7808,0.781867 -0.2016,0.9888 0.26133,2.155733 0,3.128533 -0.6016,2.2304 -2.25493,4.629334 -2.34667,7.038934 1.9072,1.383466 2.14614,-0.439467 3.9104,-1.563734 0.73387,-0.468266 2.7424,-0.6592 4.6912,-1.563733 0.37334,-0.1728 -0.0704,-0.737067 0.78187,-0.781867 0.27947,-0.01493 1.24267,-0.590933 1.5648,-0.781866 0.31573,-0.187734 0.512,-1.4432 0.7808,-1.563734 1.47627,-0.6656 2.5568,-0.5792 3.9104,-1.563733 2.7456,-0.138667 2.57173,2.641067 4.69227,3.128533 v 6.256 c -0.9376,-0.164266 -0.3872,1.1904 -0.78187,1.5648 -0.5632,0.533334 -1.83787,0.200534 -2.3456,0.781867 -0.53653,0.613333 -0.1856,1.815467 -0.78187,2.346667 -0.50986,0.453333 -1.78666,0.4704 -2.3456,0.781866 -0.4128,0.229334 0.10347,0.734934 -0.78186,0.781867 -1.2544,0.06613 -1.90934,2.208 -3.12854,3.128533 -0.70826,0.5344 -1.728,0.206934 -2.3456,0.781867 -0.33066,0.3072 -0.44053,1.314133 -0.78186,1.563733 -0.27947,0.203734 -1.3536,-0.258133 -1.5648,0 -0.896,1.095467 -1.25547,2.792534 -3.12747,3.9104 -0.22187,3.393067 0.28587,7.949867 -3.1296,8.602667 0.5984,2.269867 3.70773,2.027733 3.1296,5.474133 -1.1104,-0.0672 -2.2144,-0.129066 -2.34667,0.781867 0.32107,1.6448 1.28427,3.026133 2.34667,4.692267 0.56533,0.887466 0.8768,1.629866 1.56373,2.3456 0.63894,0.666666 1.27467,2.466133 0,3.9104 -2.35733,0.805333 -1.82826,-1.7504 -2.3456,-2.346667 -0.60906,-0.699733 -1.39626,-1.207467 -2.34666,-1.563733 -0.27947,-2.327467 -1.2448,-3.968 -2.3456,-5.474134 -2.2112,0.656 -4.82667,0.907734 -7.03787,1.563734 -0.4672,-4.029867 3.67147,-4.32 6.256,-3.128534 -1.62453,-4.7424 1.2672,-6.2624 0,-10.948266 -0.17707,-0.996267 -2.33387,-1.025067 -2.34667,0 -1.79626,-0.853334 0.77867,-3.838934 1.5648,-4.692267 -0.78506,-1.04 -0.7392,-2.909867 -2.3456,-3.128533 -0.2208,-1.262934 0.73814,-1.346134 0.7808,-2.346667 -0.12693,-0.9088 0.1728,-1.390933 0.78187,-1.563733 0.48107,-1.357867 -1.15413,-1.9424 -1.56373,-3.128534 -0.63147,-1.825066 0.25386,-4.5344 -1.5648,-5.474133 0.85333,-0.909867 0.84266,-2.7488 0.736,-4.677333 z m 5.472,14.858666 c -1.14454,0.680534 -2.47894,1.1712 -2.3456,3.128534 0.4416,1.905066 0.66986,4.0224 3.12853,3.9104 1.48587,-1.957334 -0.6496,-3.070934 0.7808,-5.474134 2.21547,-0.1312 3.25973,-1.4336 5.4752,-1.5648 0.26453,-1.630933 2.14827,-1.6384 3.12853,-2.3456 1.136,-0.821333 1.97227,-2.1888 3.12854,-3.128533 0.6112,-0.497067 1.77813,-0.347733 2.3456,-0.781867 0.39466,-0.301866 1.17546,-1.175466 1.56373,-1.563733 1.1264,-1.1264 2.23253,-2.257067 2.34667,-3.9104 -0.87787,0.08 -1.21814,-1.136 -1.5648,0 -1.23307,-0.3936 -0.6112,-1.568 -2.3456,-1.563733 -1.76,0.0032 -4.86614,2.6304 -5.47414,3.128533 -0.60693,0.496 -1.42506,0.6144 -1.5648,1.563733 3.83147,1.441067 5.55627,-3.246933 7.03894,-1.563733 -4.4448,2.333867 -6.85867,6.696533 -14.85867,5.474133 -0.88533,0.923734 -0.864,2.763734 -0.768,4.6912 z M 210.38933,36.7552 h 1.5648 c 0.0437,0.4768 0.11627,0.925867 0.7808,0.781867 1.06667,-1.054934 1.49014,-5.460267 -0.7808,-5.474134 -1.088,1.000534 -0.48,3.6928 -1.568,4.692267 z m -68.032,18.769067 c -0.78826,2.352 1.74294,1.3856 3.12854,1.563733 v -2.346667 c -1.36534,-0.0576 -2.432,0.174934 -3.12534,0.782934 z m 3.12534,21.114666 v 3.9104 c 2.77013,-0.261333 1.9232,-2.151466 4.69226,-0.781866 0.11627,-1.9424 -0.40426,-3.2448 -1.5648,-3.9104 -0.21333,1.812266 -2.09066,1.797333 -3.12533,0.781866 z M 193.184,82.112 c 0.0437,-0.4768 0.11627,-0.925867 0.7808,-0.781867 -0.0885,-0.954666 -0.2336,-1.851733 -1.56373,-1.563733 0.128,0.920533 -0.128,2.219733 0.78933,2.3456 z m -33.62133,12.513067 c -1.48054,2.2208 -0.2688,7.528533 0,8.602663 0.272,1.088 0.21973,1.63947 0.7808,2.3456 0.36373,0.4576 0.5024,1.0304 1.5648,0.78187 0.1408,-2.97493 -0.19734,-5.952 0,-7.8208 0.15893,-1.514667 0.7136,-1.762133 0,-2.346667 -0.61974,-0.506666 -0.28054,-2.4608 -0.78187,-3.128533 0.43413,0.0021 0.88747,-0.6336 0,-0.781867 -0.40533,0.974934 -1.01333,1.509334 -1.568,2.347734 z m 6.25066,3.128533 c 0.23467,1.259733 0.41387,3.05173 1.56374,3.9104 0.26986,-2.596267 2.096,-6.6912 -1.56374,-7.038933 -0.59733,1.354666 -0.23466,1.8688 0,3.128533 z m -12.512,4.6912 c 0.11627,-1.94133 -0.40426,-3.2448 -1.5648,-3.9104 0.352,1.47947 -1.056,4.7136 1.568,3.9104 z m 3.91467,1.5648 c -0.47253,-1.61173 1.26293,-5.432533 -1.56373,-4.692267 -0.16,2.247467 0.192,3.972267 1.568,4.692267 z m 24.23467,2.3456 h 2.34666 v -2.34667 h -1.5648 c -0.032,1.00054 -0.992,1.08374 -0.77866,2.34667 z m -16.416,3.90613 c -3.42614,-0.5696 0.6304,1.55414 -1.5648,1.56374 -0.91947,0.12266 -2.21974,-0.1344 -2.3456,0.78186 -0.9824,-0.17173 -1.59787,-1.21813 -1.56374,0.78187 -0.1696,1.0272 1.0816,0.3872 1.56374,0.78187 0.2592,0.2112 -0.25387,1.344 0,1.56373 0.608,0.52693 1.77706,0.27093 2.3456,0.78187 0.66986,0.60053 0.6144,2.01813 1.5648,2.34666 0.32,-1.33333 1.008,0.16427 2.3456,0 1.34293,1.00267 0.016,4.67627 2.3456,4.69227 1.13173,-1.21493 1.0432,-3.64907 2.34666,-4.69227 1.4784,-0.176 1.7248,0.88107 3.12747,0.78187 -0.003,-1.39733 2.10667,-4.54933 0,-5.47413 -0.17493,0.60693 -0.0213,1.5424 -0.7808,1.56373 -1.03467,0.009 -0.71467,1.37067 -1.5648,1.56373 -1.3024,-2.976 -0.35093,-5.07413 1.5648,-5.47413 0.51627,-0.10773 1.30453,0.95573 1.56373,0.78187 0.48214,-0.32427 -0.37013,-2.6368 0,-3.12854 1.6352,1.70454 2.23254,-0.39146 4.69227,0 0.16427,-2.77226 -3.66827,-1.54453 -3.12853,-4.69226 -1.8848,-0.32 -1.70027,1.42826 -3.9104,0.78186 -1.08054,1.78774 -0.85654,4.87894 -3.9104,4.69227 -0.98987,-0.28267 -1.03574,-1.61173 -1.56374,-2.3456 -0.4864,-0.67733 -1.9744,-0.73813 -1.5648,-2.34667 -0.0437,-0.4768 -0.11626,-0.92586 -0.7808,-0.78186 -1.07733,1.01333 -0.77866,3.40586 -0.77866,5.4752 z m 14.85866,8.608 c 3.30134,0.1728 2.19307,-4.064 3.9104,-5.47413 -3.648,-0.512 -4.42666,1.83467 -3.91466,5.472 z m -9.38666,10.944 c -0.0821,-2.0032 -0.44267,-3.72906 -1.5648,-4.69226 -1.67467,1.67466 -0.288,4.26666 1.568,4.69333 z m -24.24534,4.69334 c 2.49707,1.10293 1.97654,-4.67947 0.78187,-4.6912 -0.896,0.928 -0.88533,2.76266 -0.77867,4.69333 z m 10.95467,3.91466 c -1.01653,-1.9424 2.2944,-3.2448 0,-3.9104 -0.45867,0.48 -1.83467,3.712 0,3.91467 z m -4.69333,6.25067 c 2.2464,-0.39787 5.97973,-3.35253 3.9104,-5.47413 -0.74667,2.38933 -3.81867,2.45333 -3.91467,5.472 z m -86.808537,12.512 c 0.155734,-1.65653 -0.3328,-3.39627 -0.781866,-4.69227 -0.420267,-1.2128 -0.487467,-3.48266 -2.346667,-3.12853 -0.378667,4.032 0.5952,6.70933 3.128533,7.81867 z m 60.995197,12.512 c 0.65494,-1.69067 2.02454,-2.66773 1.5648,-5.47413 -5.17333,-1.42934 -6.22933,5.52533 -1.568,5.472 z m 9.38667,-0.77867 c 2.63467,2.37867 2.368,-2.89066 0,0 z M 124.36267,190.816 c 2.06293,0.23787 2.01706,-1.63307 2.3456,-3.12853 -2.05867,-0.23467 -2.56,1.07733 -2.34667,3.12533 z m -0.77867,11.73333 c 0.3328,-2.79466 4.1536,-2.10346 3.12853,-6.256 -4.50133,-1.61066 -6.42133,4.928 -3.12533,6.26134 z m -22.6784,-3.136 c -0.79467,1.2288 0.0459,4.59947 0,5.47414 -0.0256,0.49066 -0.7872,0.87466 -0.78187,0.78186 -0.156797,2.50987 2.3744,5.28107 0,7.03894 -1.233063,-0.0704 -0.612263,-1.99467 -2.346663,-1.5648 -0.658134,1.9488 -1.022934,4.19093 -0.781867,7.03893 0.674133,3.11787 -1.168,5.77813 0,7.03893 1.9392,1.0144 3.7952,-1.74506 3.9104,0 0.49067,2.3776 -1.000533,6.73494 0.78187,7.81974 1.728,-2.9632 1.74933,-7.6352 3.9104,-10.1664 -0.92054,-0.1216 -2.21974,0.13546 -2.3456,-0.7808 0.0512,-1.30134 -0.0683,-2.61014 0,-3.9104 0.14826,-2.8224 0.70826,-3.20214 0,-3.9104 -0.77334,-0.77227 0.0149,-7.14027 0,-7.81974 -0.0683,-3.0816 0.70933,-6.38933 -0.78187,-7.8208 0.38613,0.98134 -1.35467,0.46934 -1.5648,0.78934 z m 26.59307,7.04 c 0.0117,-0.0533 -0.0149,-0.7808 0,-0.78186 -3.48907,0.1888 -4.99307,2.8 -5.47414,6.256 3.0144,1.61066 4.51307,-4.08747 7.03787,-5.47414 2.1344,0.5696 1.57547,-1.55413 3.12853,-1.5648 -0.0171,-1.84213 1.34827,-2.30186 0.78187,-4.6912 -2.13333,-0.0704 -1.5744,1.3024 -3.12853,0 0.224,3.104 -0.96,4.78934 -2.34667,6.26134 z M 108.72533,215.84 c 1.42187,-0.9248 0.6144,-4.07787 1.56374,-5.47413 -2.86934,-0.288 -5.6576,5.76 -1.568,5.472 z m -66.471463,10.16533 c -2.453334,1.78347 -1.249067,4.85867 0.781866,6.256 3.121067,-2.53226 0.6528,-6.41386 0.781867,-10.16533 0.104533,-3.0368 1.437867,-6.11947 0.781867,-9.38453 -1.115734,-0.18774 -1.319467,-1.28854 -2.346667,-1.5648 -0.621867,4.32 -1.575467,10.77333 0.0011,14.86933 z m 78.983463,-7.81866 c 3.80694,0.67946 4.92587,-1.33014 5.47414,-3.9104 -0.90774,-0.656 -2.096,-1.03147 -3.9104,-0.7808 0.384,2.464 -1.10934,3.06133 -1.55734,4.69333 z m -73.50933,1.568 c 1.0752,-1.00267 1.361067,-4.67734 -0.781867,-4.69227 -0.5984,1.99467 -1.152,3.59467 0.781867,4.69333 z m 27.370667,2.34666 c -0.1056,-2.50133 0.7712,-5.984 -2.3456,-5.47413 0.02987,2.57067 -0.32,5.52533 2.3456,5.472 z m 11.730133,1.55734 c -0.378667,0.92373 -0.834133,1.7728 -1.563733,2.3456 -0.834134,-0.7296 -0.2432,-2.88427 -2.3456,-2.3456 -0.910934,2.4128 -1.7824,4.00106 -2.346667,6.256 -0.08213,0.3296 -0.804267,0.93546 -0.781867,0.78186 -0.189866,1.30347 0.881067,2.58774 0.781867,3.12854 -0.122667,0.67626 -3.906133,1.9936 -0.781867,2.3456 1.0336,-1.90934 2.474667,-0.20907 3.9104,-0.78187 0.1984,-0.0779 0.551467,-1.39093 0.781867,-1.56373 0.762667,-0.57174 1.754667,-0.0725 2.3456,-0.78187 0.247467,-0.29547 -0.162133,-1.2032 0,-1.56373 0.129067,-0.28694 1.392,-0.43414 1.563733,-0.78187 0.9088,-1.83253 0.1472,-2.50133 0.781867,-3.9104 0.130133,-0.288 1.394133,-0.42987 1.563733,-0.78187 0.373334,-0.77013 0.567467,-1.76213 0.781867,-2.3456 0.3136,-0.85013 1.240533,-1.82826 0,-2.3456 -1.3536,1.00267 -2.048,2.656 -4.6912,2.35734 z m 35.19787,-1.55734 c -0.0501,2.39254 -2.87147,4.0736 -0.78187,6.256 1.68107,0.63147 1.808,-1.59573 2.3456,-2.34666 0.46293,-0.64427 2.52907,-1.1776 1.5648,-3.12854 -0.17493,-0.60586 -0.0224,-1.54133 -0.78187,-1.56373 -0.14933,0.91733 -1.248,0.85333 -2.35733,0.78933 z m -88.37547,7.02934 c 1.7056,0.14293 2.488533,-0.64 2.3456,-2.3456 -2.530133,0.9664 -0.597333,-2.53014 -3.127467,-1.56374 -0.32,1.888 1.428267,1.70667 0.781867,3.91467 z m 62.562133,0 c 0.218667,-1.7824 -0.187733,-2.93974 -1.563733,-3.12854 0.178133,1.38667 -0.788267,3.91467 1.563733,3.12534 z m -22.6784,5.472 c 0.634667,-1.1776 6.004267,-6.30614 1.563734,-7.03894 0.299733,2.69867 -3.927467,4.88534 -1.563734,7.04 z m -9.384533,3.136 c -1.552,1.47946 -0.379733,3.69386 0,5.47413 2.929067,0.0619 2.363733,-3.37173 6.256,-2.3456 0.4064,-1.23093 3.0112,-4.1888 0.781867,-5.4752 -2.210134,1.92 -3.256534,3.79733 -7.037867,2.34667 z m 29.717333,4.69333 c -0.03413,-1.07627 0.368,-1.71627 0.781867,-2.3456 h -1.563733 c -0.875734,1.12 -0.842667,1.90933 0.781866,2.34667 z m -26.5888,14.85867 c 0.122667,-0.91947 -0.1344,-2.21974 0.781867,-2.3456 4.917333,-1.59894 13.522133,0.48853 16.4224,-3.12854 1.442133,1.3248 2.6944,0.52907 3.128533,0 0.186667,-0.22826 1.28,0.1344 1.563734,0 0.09707,-0.0459 -0.07467,-0.69013 0,-0.78186 0.146133,-0.17814 1.312,0.0533 1.563733,0 3.173333,-0.66667 6.043733,-0.39574 8.6016,-1.56374 0.78507,-0.003 0.9312,0.6336 1.56373,0.78187 0.36267,2.24427 0.90454,4.30827 3.12854,4.6912 1.53066,-1.46133 0.24213,-2.86507 0,-4.6912 -1.95734,-0.9984 -2.448,0.3968 -3.12854,-0.78187 0.176,-1.47946 -0.88106,-1.72586 -0.78186,-3.12853 -2.28907,0.70293 -2.403203,0.70293 -4.69227,0 0.896,-2.45973 -1.227733,-1.89973 -1.563733,-3.12853 -5.021867,0.7136 -8.101334,3.36853 -13.294934,3.9104 -0.933333,4.0192 -6.64,3.26613 -10.948266,3.90933 1.720533,-1.64267 1.720533,-3.04853 0,-4.6912 -2.615467,-0.89493 -3.595734,1.1776 -3.9104,1.56373 -0.157867,0.19307 -1.300267,-0.0736 -1.563734,0 -0.987733,0.27947 -1.784533,0.12907 -2.3456,0.78187 -0.142933,4.05333 3.6544,4.16533 3.9104,7.8208 -3.992533,-0.0469 -8.301866,-3.7408 -9.384533,1.56373 3.895467,1.344 7.639467,0.45867 10.949333,-0.8 z m 55.526397,-10.16534 h 1.5648 c 0.0427,-1.00053 1.0016,-1.08373 0.78187,-2.34666 -1.1712,0.13333 -2.8864,-0.27947 -3.12853,0.78186 0.608,0.17067 0.90666,0.65067 0.77866,1.568 z M 111.072,251.808 c -3.73333,-2.16533 -1.89867,2.57067 0,0 z m -10.94827,3.91467 c 0.3712,-2.45654 -0.975997,-3.19574 -2.346663,-3.9104 -1.572267,1.568 0.5792,3.392 2.346663,3.91466 z M 42.253867,260.416 c 1.058133,0.24533 1.493333,1.1136 3.128533,0.78187 v -2.3456 c -1.457067,0.10666 -2.6144,0.52266 -3.128533,1.568 z m 7.037866,0.77867 h 1.563734 c 0.04267,-1.00054 1.0016,-1.08374 0.781866,-2.3456 h -2.3456 v 2.34666 z m 3.128534,21.12 c 0.538666,-2.10347 -1.617067,-1.51147 -2.346667,-2.3456 -0.1408,1.70666 0.64,2.48533 2.346667,2.34666 z M 50.0736,317.504 c 1.509333,1.52107 4.7872,0.81813 3.9104,-2.34667 -1.076267,0.0341 -1.717333,-0.368 -2.346667,-0.7808 -0.4064,1.152 -1.156266,1.96267 -1.563733,3.12534 z m 0.782933,4.69333 c 1.076267,-0.0331 1.717334,0.36907 2.3456,0.78187 -0.03413,-1.07627 0.368,-1.71733 0.781867,-2.3456 -1.1616,-1.22667 -3.4944,-0.87467 -3.127467,1.568 z m 7.037867,5.472 h 1.563733 V 326.1056 H 57.8944 v 1.568 z m -4.692267,0.77867 c 2.5504,-0.1408 3.764267,1.83893 3.9104,-1.56373 -1.9424,-0.10667 -3.245866,0.416 -3.9104,1.568 z m 6.256,5.48267 v -3.12854 c -3.085866,-0.544 -2.56,3.28534 0,3.12534 z"
       id="path159"
       style="fill:#000000;stroke-width:1.06666672"
       inkscape:connector-curvature="0" /><path
       d="m 168.16,52.395733 c 0.4512,-0.948266 2.9536,0.509867 4.6912,-0.781866 -0.2592,3.127466 1.3952,4.341333 0.78187,7.8208 1.24693,0.578133 -0.17814,3.828266 2.3456,3.128533 -0.5664,1.7792 -0.69654,3.995733 -1.56374,5.474133 -2.75306,-0.842666 -5.39306,-0.02347 -7.8208,-0.781866 -1.37066,0.714666 -2.7168,1.453866 -2.3456,3.9104 -1.59253,0.232533 -2.0832,1.565866 -3.12853,2.3456 1.00587,5.6992 -2.65707,6.727466 -3.9104,10.1664 -1.7408,-0.3296 -0.6112,-4.1504 0,-4.692267 0.78293,-1.042133 1.2896,-2.360533 2.34667,-3.128533 0.47786,-3.844267 1.7248,-5.997867 3.90933,-8.602667 2.192,-2.6144 3.8144,-5.981867 5.47413,-10.1664 -0.43733,-1.374933 0.96,-4.5952 -0.768,-4.692267 z"
       id="path161"
       style="fill:#000000;stroke-width:1.06666672"
       inkscape:connector-curvature="0" /><path
       d="m 127.49867,73.5104 c 1.65333,0.242133 -0.8224,2.715733 -2.3456,2.346667 -1.216,-2.7808 2.656,-0.472534 2.34666,-2.346667 z"
       id="path163"
       style="fill:#000000;stroke-width:1.06666672"
       inkscape:connector-curvature="0" /><path
       d="m 106.37973,97.7536 c -0.76053,0.0224 -0.60693,0.9568 -0.78186,1.563733 -1.63414,-0.331733 -2.0704,0.535467 -3.12854,0.781867 0.17174,2.5184 -1.38346,3.3088 -0.78186,6.256 -1.648,-0.64 -2.14507,-4.12267 -0.78187,-5.47413 1.6,-1.006937 0.82453,-4.38827 3.12853,-4.69227 -0.6944,-1.6512 -2.3808,-2.311467 -2.3456,-4.692267 -3.06133,-0.453333 -4.540797,0.673067 -6.255997,1.563734 -1.492266,-0.672 0.8448,-0.465067 0.781867,-1.563734 1.3376,0.03413 2.0256,-0.581333 2.346667,-1.563733 h 3.910403 c -0.2784,1.4752 1.81973,0.929067 2.34666,1.563733 0.40214,0.4864 0.63147,2.7072 0.78187,3.128534 0.10667,0.2976 0.74027,-0.01067 0.78187,0.781866 0.0395,0.779734 -0.0341,1.565867 -0.002,2.346667 z"
       id="path165"
       style="fill:#000000;stroke-width:1.06666672"
       inkscape:connector-curvature="0" /><path
       d="M 81.355733,97.7536 C 81.6096,97.73013 82.0096,96.212267 82.1376,96.189867 c 0.445867,-0.0768 1.901867,1.281066 2.346667,1.563733 0.4992,0.317867 4.882133,1.950933 4.692266,3.9104 0.788267,2.352 -1.741866,1.3856 -3.128533,1.56373 1.457067,3.49547 2.717867,7.1872 2.3456,12.512 -4.4544,-2.99093 -1.7376,-12.2144 -3.128533,-16.422397 -1.626667,0.458667 -2.526934,1.643737 -3.9104,2.346667 0.347733,1.99787 1.096533,3.59573 2.3456,4.69227 -0.1632,2.24106 0.740266,4.85333 1.563733,7.03786 0.104533,0.27627 -0.2112,1.392 0,1.56374 0.843733,0.69013 0.152533,0.42453 0,1.56373 -0.170667,1.28107 0.733867,1.3312 0.781867,2.34667 0.154666,3.2416 -0.2016,6.18773 0,9.38346 0.08,1.2608 0.660266,1.3312 0.781866,2.34667 0.650667,5.41547 -0.6688,11.12853 0,15.64053 0.0416,0.27627 -0.1824,1.38134 0,1.56374 0.08533,0.0843 1.5648,-0.0629 1.563734,0 -0.0064,0.56426 -1.300267,0.9088 -1.563734,1.56373 -0.833066,2.07467 0.715734,3.70347 0,4.69227 -1.1264,-0.17707 -0.272,-2.33387 -1.563733,-2.34667 -0.165333,-7.26613 0.224,-14.13973 0,-20.3328 -0.0416,-1.16053 -2.1728,-6.13973 -0.781867,-9.38347 0.1472,-0.34453 0.852267,0.0917 0.781867,-0.78186 -0.04587,-0.57067 -0.6336,-0.88 -0.781867,-1.56374 -0.162133,-0.74773 0.138667,-1.5936 0,-2.3456 C 83.6544,112.8192 81.476267,108.544 81.3536,104.0096 c -0.6304,-0.672 -2.141867,-0.46507 -2.3456,-1.56373 -1.157333,0.4064 -1.9712,1.15733 -3.128533,1.56373 0.315733,5.41973 5.3568,6.112 4.6912,12.512 -2.4512,-2.7648 -2.522667,-12.31787 -9.383467,-9.38453 0.64,4.3136 5.233067,4.672 4.692267,10.1664 -1.425067,-0.0768 -0.9952,-1.3504 -1.5648,-2.34667 -0.8032,-1.40587 -3.102934,-3.26613 -3.127467,-6.256 h -3.9104 c 0.266667,1.57013 -0.16,2.44693 -1.563733,2.34667 -1.186134,-1.57547 -0.155734,-1.06667 0.781866,-2.34667 0.528,-0.72107 1.3376,-1.30987 1.563734,-2.3456 3.396266,0.78933 3.485866,-1.728 4.692266,-3.12853 2.389334,0.56533 2.849067,-0.8 4.6912,-0.78187 1.074134,-1.7824 -2.016,-2.939733 0,-3.128533 1.9104,-1.981867 1.666134,1.649063 4.692267,0.781863 0.696533,-0.346663 1.399467,-0.68693 1.563733,-1.56373 -0.122666,-0.929067 -1.422933,-0.673067 -2.3424,-0.794667 z"
       id="path167"
       style="fill:#000000;stroke-width:1.06666672"
       inkscape:connector-curvature="0" /><path
       d="m 46.946133,157.184 c 0.413867,-1.20427 0.816,-0.0501 0.781867,0.78187 v 2.34666 c 0.8352,2.01494 2.967467,2.96747 4.692267,4.69227 0.248533,0.24853 1.444266,1.35253 1.563733,1.56373 0.1632,0.28694 -0.242133,1.36534 0,1.56374 1.010133,0.82666 0.378667,1.5968 0.781867,3.12746 0.05227,0.19947 0.744533,0.0672 0.781866,0.78187 0.01493,0.27947 -0.6016,1.68533 -0.781866,2.3456 -0.07147,0.2624 0.190933,1.408 0,1.5648 -0.619734,0.50667 -0.753067,2.07253 -1.563734,3.9104 -1.544533,-0.5408 -2.085333,-2.0864 -2.3456,-3.9104 -1.376,0.18773 -1.7824,1.34507 -1.563733,3.12853 -1.2032,-0.2016 -0.4608,-2.0128 -0.781867,-3.12853 -0.647466,-2.2528 -1.784533,-3.19787 -3.9104,-3.9104 v -3.9104 c 1.816534,0.22933 3.665067,1.9648 3.128534,-1.56373 1.816533,0.52906 2.0928,2.5984 3.9104,3.12853 -0.973867,-2.41493 -0.6432,-6.1344 -3.9104,-6.256 0.170666,-2.50667 -1.384534,-3.296 -0.782934,-6.25067 z"
       id="path169"
       style="fill:#000000;stroke-width:1.06666672"
       inkscape:connector-curvature="0" /><path
       d="m 25.0496,222.88 c -1.454933,0.24 -0.129067,-2.59307 -0.781867,-3.12747 -0.05547,-0.0459 -0.773333,0.0512 -0.781866,0 -0.855467,-5.04853 -0.5056,-15.67786 0.781866,-20.3328 0.280534,-1.01333 -0.395733,-2.28906 0.781867,-2.3456 -0.747733,-3.248 2.341333,-0.15786 0,0 0.516267,2.83947 -0.749867,5.6672 -0.781867,8.6016 -0.0192,1.72694 0.618667,2.90667 0.781867,4.69227 0.216533,2.36587 -0.06187,4.95893 0,7.03787 0.06293,2.12266 0.992,3.73333 0,5.472 z"
       id="path171"
       style="fill:#000000;stroke-width:1.06666672"
       inkscape:connector-curvature="0" /><path
       d="m 10.9728,221.312 c 2.190933,0.416 1.445333,3.76747 2.3456,5.47413 -0.791467,2.06934 -1.648,-3.91466 -2.3456,-5.472 z"
       id="path173"
       style="fill:#000000;stroke-width:1.06666672"
       inkscape:connector-curvature="0" /><path
       d="m 184.58667,32.8448 c 0.69653,0.346667 1.39946,0.686933 1.5648,1.5648 0.3456,2.952533 -1.5424,3.6704 -2.3456,5.474133 -0.30827,0.928 1.36853,0.397867 1.56373,0.781867 0.592,1.165867 -1.9456,2.7296 0.78187,3.128533 -0.60694,0.695467 -0.84054,1.765334 -0.78187,3.127467 0.41387,0.629333 0.816,1.269333 0.78187,2.346667 3.47946,-0.872534 3.14453,2.068266 5.47413,2.3456 0.3776,2.9856 -0.22187,4.992 -1.56373,6.256 0.24853,1.8368 1.2352,2.935466 0.7808,5.474133 -3.9392,-1.2736 -1.5648,-8.861867 -4.6912,-10.948267 -1.84427,0.241067 -1.45494,2.715734 -3.9104,2.3456 0.13226,-1.957333 -1.20107,-2.448 -2.3456,-3.128533 -0.37014,-2.455467 2.1056,-2.066133 2.3456,-3.9104 -0.4864,-2.9568 -3.26614,0.8448 -3.12854,-3.128533 -3.50933,-0.120534 -3.264,3.5136 -3.12853,7.037866 -3.5296,-2.820266 0.95787,-7.477333 0,-12.512 3.4304,0.8224 2.56853,-2.644266 5.47413,-2.3456 1.088,-1.2608 2.21867,-2.474666 3.136,-3.909333 z m -7.81867,9.384533 h 1.56373 V 40.6656 H 176.768 Z"
       id="path175"
       style="fill:#000000;stroke-width:1.06666672"
       inkscape:connector-curvature="0" /></g><metadata
     id="metadata177"><rdf:RDF><cc:Work><dc:format>image/svg+xml</dc:format><dc:type
           rdf:resource="http://purl.org/dc/dcmitype/StillImage" /><cc:license
           rdf:resource="http://creativecommons.org/publicdomain/zero/1.0/" /><dc:publisher><cc:Agent
             rdf:about="http://openclipart.org/"><dc:title>Openclipart</dc:title></cc:Agent></dc:publisher><dc:title /><dc:date>2009-03-20T04:48:30</dc:date><dc:description>In the Reign of the Coyote by Katherine Chandler, 1905</dc:description><dc:source>http://openclipart.org/detail/22611/coyote-by-johnny_automatic</dc:source><dc:creator><cc:Agent><dc:title>johnny_automatic</dc:title></cc:Agent></dc:creator><dc:subject><rdf:Bag><rdf:li>animal</rdf:li><rdf:li>canine</rdf:li><rdf:li>clip art</rdf:li><rdf:li>clipart</rdf:li><rdf:li>coyote</rdf:li><rdf:li>externalsource</rdf:li><rdf:li>image</rdf:li><rdf:li>media</rdf:li><rdf:li>png</rdf:li><rdf:li>public domain</rdf:li><rdf:li>svg</rdf:li></rdf:Bag></dc:subject></cc:Work><cc:License
         rdf:about="http://creativecommons.org/publicdomain/zero/1.0/"><cc:permits
           rdf:resource="http://creativecommons.org/ns#Reproduction" /><cc:permits
           rdf:resource="http://creativecommons.org/ns#Distribution" /><cc:permits
           rdf:resource="http://creativecommons.org/ns#DerivativeWorks" /></cc:License></rdf:RDF></metadata></svg>